<svg width="50" height="16" viewBox="0 0 50 16" fill="none" xmlns="http://www.w3.org/2000/svg">
<path fill-rule="evenodd" clip-rule="evenodd" d="M15.8348 3.61928C16.2478 3.61928 16.6042 3.69406 16.904 3.84137C17.205 3.98997 17.4538 4.19014 17.653 4.44189C17.8497 4.69493 17.9961 4.99084 18.0906 5.32962C18.1845 5.66968 18.2316 6.03489 18.2316 6.42622C18.2316 7.02673 18.123 7.5947 17.9035 8.12978C17.6842 8.66551 17.3864 9.13032 17.0077 9.5268C16.6293 9.92296 16.1826 10.235 15.6674 10.4655C15.1528 10.6966 14.5937 10.8116 13.9933 10.8116C13.9156 10.8116 13.7791 10.8097 13.5863 10.8052C13.3934 10.8013 13.1716 10.7813 12.9234 10.7472C12.6736 10.712 12.4095 10.6598 12.1304 10.5899C11.8517 10.5212 11.5869 10.4248 11.3374 10.3027L13.5669 0.813636L15.5636 0.5L14.7656 3.86716C14.9364 3.78915 15.1086 3.72855 15.2804 3.68472C15.4532 3.64217 15.6375 3.61928 15.8348 3.61928ZM14.16 9.20737C14.4607 9.20737 14.7439 9.13258 15.0103 8.98527C15.2772 8.83829 15.5076 8.6394 15.7005 8.39152C15.8933 8.143 16.0464 7.86256 16.1577 7.54925C16.2691 7.23626 16.3254 6.90973 16.3254 6.56966C16.3254 6.15223 16.2567 5.82634 16.1192 5.59103C15.9818 5.35637 15.7278 5.23872 15.3587 5.23872C15.2378 5.23872 15.0819 5.26192 14.8887 5.30351C14.6949 5.34831 14.5215 5.44018 14.3659 5.57846L13.5159 9.15482C13.5672 9.16353 13.6127 9.17255 13.6512 9.18061C13.689 9.18931 13.7307 9.19576 13.7724 9.20027C13.8166 9.20543 13.8669 9.20769 13.9277 9.20769C13.9885 9.20769 14.0655 9.20737 14.16 9.20737Z" fill="#BCBEC6"/>
<path fill-rule="evenodd" clip-rule="evenodd" d="M20.3031 10.6295H18.3958L20.0065 3.764H21.927L20.3031 10.6295ZM21.231 2.92818C20.9647 2.92818 20.7235 2.84759 20.5093 2.68707C20.2933 2.52719 20.1863 2.28092 20.1863 1.94923C20.1863 1.76679 20.2229 1.5953 20.2955 1.43413C20.369 1.27296 20.4654 1.13371 20.586 1.01606C20.7066 0.89905 20.846 0.805572 21.0045 0.734979C21.1639 0.665676 21.3335 0.631186 21.5142 0.631186C21.7803 0.631186 22.0205 0.711449 22.2353 0.872296C22.4495 1.03379 22.5574 1.28006 22.5574 1.60981C22.5574 1.7929 22.5211 1.96503 22.4476 2.1262C22.3747 2.28737 22.2786 2.42597 22.158 2.54427C22.0387 2.66128 21.8977 2.75444 21.7395 2.82439C21.5801 2.89466 21.4115 2.92818 21.231 2.92818Z" fill="#BCBEC6"/>
<path fill-rule="evenodd" clip-rule="evenodd" d="M23.5979 2.05431L25.5957 1.74068L25.105 3.764H27.2443L26.858 5.35604H24.7314L24.165 7.75779C24.1128 7.95796 24.0832 8.14492 24.0749 8.31834C24.0657 8.49305 24.0873 8.64293 24.1389 8.76897C24.1901 8.89533 24.2824 8.99267 24.416 9.06198C24.5491 9.13192 24.7397 9.16706 24.9892 9.16706C25.1947 9.16706 25.3952 9.1474 25.589 9.10775C25.7815 9.06939 25.9769 9.01524 26.1745 8.94464L26.3167 10.4335C26.059 10.5293 25.7799 10.6118 25.4792 10.6811C25.1782 10.751 24.8215 10.7849 24.4094 10.7849C23.8169 10.7849 23.3574 10.6962 23.0302 10.5186C22.7034 10.3397 22.4724 10.0957 22.334 9.7866C22.1975 9.47876 22.1367 9.12354 22.1539 8.72352C22.1717 8.32253 22.2312 7.90091 22.334 7.45705L23.5979 2.05431Z" fill="#BCBEC6"/>
<path fill-rule="evenodd" clip-rule="evenodd" d="M27.1603 7.88899C27.1603 7.2975 27.2548 6.74017 27.4438 6.21766C27.6322 5.69515 27.904 5.23839 28.2566 4.8461C28.6079 4.45575 29.0356 4.14663 29.539 3.92002C30.0402 3.69406 30.6012 3.58028 31.2198 3.58028C31.6067 3.58028 31.9526 3.61702 32.2568 3.69148C32.5623 3.76627 32.8389 3.86329 33.0886 3.98481L32.4309 5.50013C32.2591 5.42954 32.0805 5.36733 31.8963 5.3106C31.7117 5.25322 31.4864 5.2255 31.2201 5.2255C30.5837 5.2255 30.0803 5.44759 29.7057 5.89048C29.3328 6.33402 29.1447 6.93067 29.1447 7.67947C29.1447 8.12333 29.2392 8.48177 29.4289 8.75641C29.6176 9.03072 29.966 9.16707 30.4723 9.16707C30.7221 9.16707 30.963 9.14064 31.194 9.08906C31.4266 9.03684 31.6319 8.97141 31.8129 8.8934L31.9552 10.4464C31.714 10.5415 31.4479 10.6273 31.1561 10.702C30.8637 10.7746 30.5156 10.8116 30.1118 10.8116C29.5791 10.8116 29.1278 10.733 28.759 10.5773C28.3899 10.4194 28.0847 10.2095 27.8445 9.94391C27.603 9.67765 27.4295 9.3666 27.3223 9.00976C27.2147 8.65422 27.1603 8.27967 27.1603 7.88899Z" fill="#BCBEC6"/>
<path fill-rule="evenodd" clip-rule="evenodd" d="M35.6324 10.8123C35.1771 10.8123 34.7819 10.7423 34.4465 10.6034C34.112 10.4642 33.8352 10.2691 33.6159 10.0161C33.3967 9.76435 33.2322 9.46587 33.1198 9.12225C33.0072 8.77896 32.9534 8.39828 32.9534 7.9815C32.9534 7.45834 33.0364 6.9355 33.2038 6.41396C33.3706 5.89177 33.6178 5.42244 33.9456 5.00501C34.2705 4.58694 34.6711 4.24526 35.1433 3.97868C35.6146 3.71436 36.1572 3.58124 36.7662 3.58124C37.213 3.58124 37.6066 3.65151 37.9465 3.79044C38.2848 3.92969 38.5635 4.12599 38.784 4.37774C39.002 4.63078 39.1678 4.92797 39.2792 5.27223C39.3915 5.61488 39.4466 5.99653 39.4466 6.41364C39.4466 6.93518 39.3648 7.45802 39.2025 7.98117C39.0399 8.50143 38.799 8.97204 38.4808 9.39012C38.1632 9.80755 37.7661 10.1489 37.2891 10.4145C36.8121 10.6795 36.2593 10.8123 35.6324 10.8123ZM36.5855 5.22614C36.3026 5.22614 36.0528 5.30931 35.8386 5.4737C35.6238 5.63971 35.4434 5.84858 35.298 6.10033C35.151 6.35304 35.0418 6.62961 34.9683 6.92906C34.8955 7.22981 34.8595 7.51379 34.8595 7.78391C34.8595 8.21939 34.9289 8.55849 35.0651 8.80282C35.2035 9.04555 35.4517 9.16771 35.8129 9.16771C36.0967 9.16771 36.3452 9.08519 36.5607 8.91919C36.7742 8.75447 36.9546 8.5456 37.1013 8.29321C37.2474 8.04178 37.3575 7.76457 37.431 7.46447C37.5032 7.16469 37.5398 6.8791 37.5398 6.60963C37.5398 6.17511 37.4708 5.83537 37.3333 5.59135C37.1958 5.34799 36.9463 5.22614 36.5855 5.22614Z" fill="#BCBEC6"/>
<path fill-rule="evenodd" clip-rule="evenodd" d="M41.5245 10.6295H39.6159L41.2267 3.764H43.148L41.5245 10.6295ZM42.4511 2.92818C42.1851 2.92818 41.9439 2.84759 41.7301 2.68707C41.515 2.52719 41.4071 2.28092 41.4071 1.94923C41.4071 1.76679 41.444 1.5953 41.5169 1.43413C41.5897 1.27296 41.6865 1.13371 41.8071 1.01606C41.927 0.89905 42.0677 0.805572 42.2258 0.734979C42.3843 0.665676 42.5539 0.631186 42.7344 0.631186C43.001 0.631186 43.2419 0.711449 43.4564 0.872296C43.6712 1.03379 43.7794 1.28006 43.7794 1.60981C43.7794 1.7929 43.7409 1.96503 43.6686 2.1262C43.5964 2.28737 43.5 2.42597 43.3797 2.54427C43.2588 2.66128 43.12 2.75444 42.9616 2.82439C42.8018 2.89466 42.6325 2.92818 42.4511 2.92818Z" fill="#BCBEC6"/>
<path fill-rule="evenodd" clip-rule="evenodd" d="M44.5214 4.077C44.6662 4.03413 44.8279 3.98255 45.0039 3.92647C45.1805 3.87038 45.3774 3.81816 45.5976 3.7711C45.8156 3.72275 46.0613 3.68374 46.3318 3.6528C46.6022 3.62186 46.91 3.60671 47.2527 3.60671C48.2582 3.60671 48.9519 3.90326 49.3348 4.49507C49.7169 5.08689 49.7834 5.89661 49.5349 6.92261L48.6579 10.6295H46.7381L47.5884 7.00062C47.6399 6.77401 47.681 6.55482 47.7109 6.34079C47.7415 6.12901 47.7395 5.94206 47.7042 5.78024C47.6708 5.62036 47.5906 5.48981 47.4668 5.38828C47.3408 5.28803 47.1505 5.23839 46.8925 5.23839C46.6439 5.23839 46.3909 5.26547 46.1326 5.31768L44.8823 10.6295H42.9619L44.5214 4.077Z" fill="#BCBEC6"/>
<path fill-rule="evenodd" clip-rule="evenodd" d="M21.4773 14.7213L21.1031 15.4098H20.6984C20.9835 14.8889 21.2616 14.4093 21.5327 13.9709C21.8038 13.5325 22.0718 13.1186 22.3365 12.7292H22.6993C22.7375 12.9226 22.7725 13.1183 22.8043 13.3152C22.8361 13.5125 22.8673 13.7194 22.8979 13.9361C22.9284 14.1527 22.9577 14.3825 22.9857 14.6249C23.0137 14.8673 23.043 15.1287 23.0735 15.4101H22.6993C22.6866 15.2941 22.6751 15.1774 22.6649 15.0601C22.6547 14.9427 22.6433 14.8299 22.6306 14.7216L21.4773 14.7213ZM22.5962 14.4192C22.5758 14.2107 22.5523 14.0028 22.5255 13.7965C22.4988 13.5902 22.4676 13.3774 22.432 13.1583C22.3429 13.2898 22.2321 13.4596 22.0998 13.6669C21.9674 13.8748 21.8172 14.1253 21.6492 14.4192H22.5962Z" fill="#BCBEC6"/>
<path fill-rule="evenodd" clip-rule="evenodd" d="M24.4269 15.4675C24.2614 15.4675 24.1156 15.443 23.9896 15.394C23.8636 15.345 23.7586 15.2754 23.6746 15.1851C23.5906 15.0952 23.5276 14.9859 23.4856 14.8583C23.4436 14.7306 23.4226 14.5869 23.4226 14.427C23.4226 14.1949 23.4589 13.9731 23.5314 13.7617C23.604 13.5505 23.7071 13.3636 23.8407 13.2011C23.9744 13.0387 24.1354 12.9091 24.3238 12.8121C24.5121 12.7154 24.7218 12.667 24.9538 12.667C25.1524 12.667 25.3109 12.6876 25.4292 12.7289C25.5476 12.7702 25.6323 12.8088 25.6832 12.8449L25.5304 13.1544C25.4716 13.1157 25.3923 13.079 25.2918 13.0441C25.1912 13.0097 25.0722 12.9919 24.9347 12.9919C24.7591 12.9919 24.6012 13.0338 24.4612 13.118C24.3212 13.2018 24.2028 13.3101 24.1061 13.4429C24.0094 13.5757 23.9355 13.7253 23.8846 13.8916C23.8337 14.0579 23.8083 14.2223 23.8083 14.3848C23.8083 14.8876 24.0234 15.139 24.4536 15.139C24.5452 15.139 24.6273 15.1323 24.6999 15.1194C24.7724 15.1068 24.8367 15.0917 24.8927 15.0749C24.9487 15.0581 24.9984 15.0398 25.0417 15.0188C25.0849 14.9982 25.1231 14.9801 25.1562 14.9646L25.202 15.2896C25.1715 15.3076 25.1314 15.327 25.0817 15.3476C25.0321 15.3682 24.9742 15.3876 24.908 15.4059C24.8418 15.424 24.768 15.4388 24.6865 15.4504C24.6051 15.462 24.5185 15.4675 24.4269 15.4675Z" fill="#BCBEC6"/>
<path fill-rule="evenodd" clip-rule="evenodd" d="M26.5723 15.4675C26.4068 15.4675 26.2611 15.443 26.135 15.394C26.009 15.345 25.904 15.2754 25.82 15.1851C25.736 15.0952 25.673 14.9859 25.631 14.8583C25.589 14.7306 25.568 14.5869 25.568 14.427C25.568 14.1949 25.6043 13.9731 25.6768 13.7617C25.7494 13.5505 25.8525 13.3636 25.9861 13.2011C26.1198 13.0387 26.2808 12.9091 26.4692 12.8121C26.6576 12.7154 26.8673 12.667 27.0992 12.667C27.2978 12.667 27.4563 12.6876 27.5746 12.7289C27.693 12.7702 27.7777 12.8088 27.8286 12.8449L27.6758 13.1544C27.617 13.1157 27.5377 13.079 27.4372 13.0441C27.3366 13.0097 27.2176 12.9919 27.0801 12.9919C26.9045 12.9919 26.7467 13.0338 26.6066 13.118C26.4666 13.2018 26.3482 13.3101 26.2515 13.4429C26.1548 13.5757 26.0809 13.7253 26.03 13.8916C25.9791 14.0579 25.9537 14.2223 25.9537 14.3848C25.9537 14.8876 26.1688 15.139 26.599 15.139C26.6906 15.139 26.7727 15.1323 26.8453 15.1194C26.9179 15.1068 26.9821 15.0917 27.0381 15.0749C27.0941 15.0581 27.1438 15.0398 27.1871 15.0188C27.2303 14.9982 27.2685 14.9801 27.3016 14.9646L27.3474 15.2896C27.3169 15.3076 27.2768 15.327 27.2272 15.3476C27.1775 15.3682 27.1196 15.3876 27.0534 15.4059C26.9872 15.424 26.9134 15.4388 26.8319 15.4504C26.7505 15.462 26.6639 15.4675 26.5723 15.4675Z" fill="#BCBEC6"/>
<path fill-rule="evenodd" clip-rule="evenodd" d="M27.5976 15.4095L28.2314 12.7289H29.7932L29.7207 13.0422H28.5255L28.3345 13.8506H29.3961L29.3236 14.1562H28.2658L28.0405 15.0962H29.3236L29.251 15.4095H27.5976Z" fill="#BCBEC6"/>
<path fill-rule="evenodd" clip-rule="evenodd" d="M30.8987 12.7018C31.2067 12.7018 31.439 12.7611 31.5956 12.8798C31.7522 12.9984 31.8304 13.1712 31.8304 13.3981C31.8304 13.5734 31.798 13.7253 31.7331 13.8526C31.6681 13.9802 31.5759 14.0853 31.4562 14.1682C31.3366 14.2507 31.1927 14.3116 31.0247 14.3516C30.8567 14.3915 30.6696 14.4118 30.4634 14.4118H30.1999L29.9632 15.4098H29.5928L30.219 12.764C30.3259 12.7383 30.4392 12.7215 30.5589 12.7138C30.6785 12.7057 30.7918 12.7018 30.8987 12.7018ZM30.8529 13.019C30.6721 13.019 30.5627 13.0242 30.5245 13.0345L30.2725 14.0982H30.513C30.62 14.0982 30.7294 14.0889 30.8414 14.0692C30.9534 14.0499 31.054 14.0157 31.1431 13.967C31.2322 13.918 31.3054 13.8503 31.3627 13.7636C31.42 13.6772 31.4486 13.566 31.4486 13.4294C31.4486 13.2824 31.3951 13.1773 31.2882 13.1138C31.1813 13.0506 31.0362 13.019 30.8529 13.019Z" fill="#BCBEC6"/>
<path fill-rule="evenodd" clip-rule="evenodd" d="M34.0894 12.7289L34.0169 13.0422H33.2188L32.6575 15.4095H32.2871L32.8484 13.0422H32.0503L32.1229 12.7289H34.0894Z" fill="#BCBEC6"/>
<path fill-rule="evenodd" clip-rule="evenodd" d="M33.7458 15.4095L34.3797 12.7289H35.9415L35.8689 13.0422H34.6737L34.4828 13.8506H35.5443L35.4718 14.1562H34.414L34.1887 15.0962H35.4718L35.3992 15.4095H33.7458Z" fill="#BCBEC6"/>
<path fill-rule="evenodd" clip-rule="evenodd" d="M37.0412 12.7018C37.4332 12.7018 37.726 12.7953 37.9195 12.9823C38.1129 13.1692 38.2097 13.4213 38.2097 13.7385C38.2097 13.9602 38.1753 14.1736 38.1066 14.3783C38.0378 14.5836 37.9309 14.7645 37.7858 14.9221C37.6407 15.0791 37.4555 15.2045 37.2302 15.2973C37.0049 15.3901 36.7357 15.4366 36.4226 15.4366C36.3157 15.4366 36.1998 15.4314 36.0751 15.4211C35.9504 15.4108 35.8409 15.3927 35.7467 15.3669L36.3615 12.7637C36.4684 12.7379 36.5817 12.7212 36.7013 12.7134C36.821 12.7057 36.9343 12.7018 37.0412 12.7018ZM37.0106 13.019C36.8197 13.019 36.7052 13.0242 36.667 13.0345L36.1782 15.1C36.1986 15.1052 36.2329 15.1097 36.2813 15.1136C36.3297 15.1175 36.4086 15.1194 36.518 15.1194C36.7192 15.1194 36.9005 15.0855 37.0622 15.0172C37.2238 14.9489 37.3607 14.8535 37.4727 14.7306C37.5847 14.6082 37.6713 14.4628 37.7323 14.2939C37.7934 14.125 37.824 13.9399 37.824 13.7388C37.824 13.5119 37.7591 13.3352 37.6292 13.2086C37.4994 13.0825 37.2932 13.019 37.0106 13.019Z" fill="#BCBEC6"/>
<path fill-rule="evenodd" clip-rule="evenodd" d="M41.0621 15.4095H40.6917L40.9858 14.164H39.76L39.466 15.4095H39.0956L39.7295 12.7289H40.0999L39.8326 13.8506H41.0586L41.3259 12.7289H41.6963L41.0621 15.4095Z" fill="#BCBEC6"/>
<path fill-rule="evenodd" clip-rule="evenodd" d="M41.6464 15.4095L42.2803 12.7289H43.842L43.7692 13.0422H42.574L42.383 13.8506H43.4446L43.3717 14.1562H42.314L42.089 15.0962H43.3717L43.2989 15.4095H41.6464Z" fill="#BCBEC6"/>
<path fill-rule="evenodd" clip-rule="evenodd" d="M44.9475 12.7018C45.2301 12.7018 45.4541 12.7598 45.6196 12.8759C45.7851 12.9919 45.8675 13.1621 45.8675 13.3862C45.8675 13.6131 45.8023 13.8036 45.6712 13.957C45.5401 14.1105 45.3561 14.2207 45.1194 14.2874C45.1499 14.3419 45.1856 14.4109 45.2263 14.4947C45.267 14.5785 45.309 14.6713 45.3523 14.7732C45.3953 14.8747 45.4376 14.9808 45.4783 15.09C45.5191 15.2 45.5544 15.306 45.5852 15.4092H45.2072C45.1719 15.3112 45.1347 15.2119 45.0965 15.1113C45.0586 15.0107 45.0195 14.914 44.9803 14.8212C44.9405 14.7284 44.9014 14.6413 44.8616 14.5601C44.8225 14.4789 44.7859 14.407 44.7528 14.3454C44.7197 14.348 44.6866 14.35 44.6535 14.3512C44.6204 14.3525 44.5876 14.3532 44.5542 14.3532H44.2602L44.012 15.4092H43.6416L44.2682 12.7634C44.3751 12.7376 44.488 12.7208 44.608 12.7131C44.7273 12.7057 44.8406 12.7018 44.9475 12.7018ZM44.9017 13.019C44.721 13.019 44.6115 13.0242 44.573 13.0345L44.3324 14.0483H44.558C44.6624 14.0483 44.7693 14.0405 44.8788 14.025C44.9883 14.0096 45.0882 13.9793 45.1782 13.9341C45.2686 13.889 45.3424 13.8258 45.3997 13.7446C45.457 13.6634 45.486 13.5557 45.486 13.4216C45.486 13.2772 45.4319 13.1741 45.3237 13.1122C45.2155 13.05 45.0745 13.019 44.9017 13.019Z" fill="#BCBEC6"/>
<path fill-rule="evenodd" clip-rule="evenodd" d="M45.8958 15.4095L46.5297 12.7289H48.0915L48.0186 13.0422H46.8234L46.6325 13.8506H47.694L47.6212 14.1562H46.5634L46.3384 15.0962H47.6212L47.5483 15.4095H45.8958Z" fill="#BCBEC6"/>
<path fill-rule="evenodd" clip-rule="evenodd" d="M6.00614 10.8116C8.817 10.8116 11.0957 8.50341 11.0957 5.65611C11.0957 2.80881 8.817 0.50061 6.00614 0.50061C3.19528 0.50061 0.916626 2.80881 0.916626 5.65611C0.916626 8.50341 3.19528 10.8116 6.00614 10.8116ZM8.25018 4.92118C8.35137 4.23492 7.83555 3.86616 7.13039 3.6199L7.35918 2.68995L6.80072 2.54876L6.57797 3.45421C6.43127 3.41714 6.28044 3.38201 6.13024 3.34752L6.35458 2.43626L5.79644 2.29508L5.56732 3.22471C5.44576 3.19666 5.32643 3.16894 5.2106 3.13961L5.21124 3.13671L4.44084 2.94202L4.29224 3.5464C4.29224 3.5464 4.70655 3.64246 4.69796 3.64858C4.92421 3.70596 4.96526 3.85746 4.95826 3.97769L4.69764 5.03658C4.71324 5.04045 4.73328 5.04593 4.75588 5.0556C4.7371 5.05044 4.71737 5.0456 4.69669 5.04045L4.33138 6.5245C4.30369 6.5938 4.23337 6.69824 4.07522 6.65859C4.08094 6.66665 3.66918 6.55609 3.66918 6.55609L3.39169 7.20399L4.11849 7.3874C4.25373 7.42157 4.38643 7.45767 4.51658 7.49152L4.28556 8.43178L4.84338 8.57297L5.0725 7.64269C5.22492 7.68428 5.37289 7.72328 5.51768 7.7597L5.28952 8.68546L5.84799 8.82665L6.07933 7.88832C7.03206 8.07076 7.74836 7.99727 8.04971 7.12437C8.29282 6.42135 8.03762 6.01617 7.53643 5.75185C7.90174 5.66675 8.17667 5.42371 8.25018 4.92118ZM6.97382 6.73433C6.80103 7.43703 5.63319 7.05699 5.25451 6.96158L5.56127 5.71605C5.93995 5.81179 7.15425 6.00133 6.97382 6.73433ZM7.14661 4.91119C6.9891 5.55006 6.01695 5.22547 5.7016 5.14617L5.97972 4.01605C6.29507 4.09599 7.31049 4.24459 7.14661 4.91119Z" fill="#757883"/>
</svg>
