<svg width="50" height="71" viewBox="0 0 50 71" fill="none" xmlns="http://www.w3.org/2000/svg">
<path d="M0.740234 60.8241L9.4138 48.2851C11.5508 50.1707 14.0963 51.8048 17.0503 53.1876C20.0043 54.5703 22.8641 55.2617 25.6296 55.2617C27.8294 55.2617 29.5264 54.8217 30.7206 53.9418C31.9776 53.0618 32.6062 51.9305 32.6062 50.5478C32.6062 49.1022 31.8519 47.7823 30.3435 46.5881C28.8979 45.3311 27.0752 44.294 24.8754 43.4769C22.6756 42.6599 20.2872 41.6228 17.7103 40.3658C15.1333 39.0459 12.7449 37.6631 10.5451 36.2175C8.34532 34.7719 6.49118 32.7921 4.98274 30.278C3.53714 27.7011 2.81435 24.7471 2.81435 21.4159C2.81435 15.2564 5.07702 10.2911 9.60235 6.52001C14.1905 2.68604 20.0672 0.769058 27.2323 0.769058C35.5916 0.769058 42.631 3.31456 48.3506 8.40557L41.374 21.8873C39.4256 20.1903 37.1001 18.7761 34.3974 17.6448C31.6948 16.5135 29.055 15.9478 26.4781 15.9478C24.0897 15.9478 22.2984 16.3878 21.1043 17.2677C19.9101 18.1476 19.313 19.3104 19.313 20.756C19.313 22.2016 20.0358 23.5215 21.4814 24.7156C22.9898 25.9098 24.8439 26.9155 27.0438 27.7325C29.2436 28.4867 31.6319 29.4924 34.2089 30.7494C36.7858 31.9436 39.1742 33.2635 41.374 34.7091C43.5738 36.0918 45.3965 38.0717 46.8421 40.6486C48.3506 43.1627 49.1048 46.0853 49.1048 49.4164C49.1048 55.3874 46.9678 60.3841 42.6939 64.4066C38.4828 68.4291 32.6376 70.4404 25.1582 70.4404C20.6329 70.4404 16.2018 69.6233 11.865 67.9892C7.59109 66.355 3.88283 63.9666 0.740234 60.8241Z" fill="url(#paint0_linear_53_2421)"/>
<defs>
<linearGradient id="paint0_linear_53_2421" x1="58.9074" y1="35.1141" x2="-18.0062" y2="4.40996" gradientUnits="userSpaceOnUse">
<stop stop-color="#1C57F0"/>
<stop offset="1" stop-color="#00D1FF"/>
</linearGradient>
</defs>
</svg>
