<svg width="51" height="50" viewBox="0 0 51 50" fill="none" xmlns="http://www.w3.org/2000/svg">
<g clip-path="url(#clip0_53_2579)">
<path d="M33.1678 22.1983L33.1311 4.38535C33.1261 1.96729 31.1547 0 28.7365 0H5.19531C2.77217 0 0.800781 1.97139 0.800781 4.39443V22.1674C0.800781 24.5904 2.77217 26.5618 5.19531 26.5618H8.22266V29.4914C8.22266 30.6958 9.60186 31.3866 10.5664 30.6633L16.0332 26.5633L28.76 26.6018C31.2311 26.6018 33.1728 24.6109 33.1678 22.1983ZM16.9141 20.605C16.1051 20.605 15.4492 19.9491 15.4492 19.1401C15.4492 18.3312 16.1051 17.6753 16.9141 17.6753C17.723 17.6753 18.3789 18.3312 18.3789 19.1401C18.3789 19.9491 17.723 20.605 16.9141 20.605ZM18.4766 14.4944V14.648C18.4766 15.457 17.8207 16.1129 17.0117 16.1129C16.2027 16.1129 15.5469 15.457 15.5469 14.648V13.7341C15.5469 12.7666 16.2659 11.9358 17.2194 11.8016C17.9361 11.7007 18.4766 11.0772 18.4766 10.3512C18.4766 9.28369 17.3002 8.36836 15.9543 9.22959C15.2727 9.66553 14.3669 9.46641 13.931 8.78506C13.495 8.10361 13.694 7.19775 14.3755 6.76172C15.8862 5.79531 17.6597 5.69561 19.1198 6.49473C20.5301 7.26689 21.4062 8.74453 21.4062 10.3513C21.4062 12.232 20.1946 13.8838 18.4766 14.4944Z" fill="#41425E"/>
<path d="M46.4062 20.605H36.0941L36.0975 22.1923C36.1049 25.8091 33.5146 28.744 30.1957 29.3938H43.3789C44.1879 29.3938 44.8438 30.0497 44.8438 30.8587C44.8438 31.6677 44.1879 32.3235 43.3789 32.3235H25.8008C24.9918 32.3235 24.3359 31.6677 24.3359 30.8587C24.3359 30.2615 24.6938 29.7487 25.2063 29.5207L18.4766 29.5003V42.6747C18.4766 45.0978 20.4479 47.0691 22.8711 47.0691H32.7792L38.3293 49.8441C39.3004 50.3297 40.4492 49.6225 40.4492 48.534V47.0691H46.4062C48.8294 47.0691 50.8008 45.0979 50.8008 42.6747V24.9994C50.8008 22.5763 48.8294 20.605 46.4062 20.605ZM43.3789 38.1826H25.8008C24.9918 38.1826 24.3359 37.5268 24.3359 36.7178C24.3359 35.9088 24.9918 35.2529 25.8008 35.2529H43.3789C44.1879 35.2529 44.8438 35.9088 44.8438 36.7178C44.8438 37.5268 44.1879 38.1826 43.3789 38.1826Z" fill="#41425E"/>
</g>
<defs>
<clipPath id="clip0_53_2579">
<rect width="50" height="50" fill="white" transform="translate(0.800781)"/>
</clipPath>
</defs>
</svg>
