<svg width="166" height="77" viewBox="0 0 166 77" fill="none" xmlns="http://www.w3.org/2000/svg">
<path d="M96.1189 36.9802V21.4377H99.923V33.7196H106.27V36.9802H96.1189Z" fill="white"/>
<path d="M106.862 29.1111C106.862 26.8504 107.623 24.9665 109.144 23.4593C110.666 21.9376 112.615 21.1768 114.992 21.1768C117.368 21.1768 119.318 21.9376 120.839 23.4593C122.361 24.9665 123.122 26.8504 123.122 29.1111C123.122 31.4298 122.361 33.3645 120.839 34.9152C119.318 36.4658 117.368 37.2411 114.992 37.2411C112.615 37.2411 110.666 36.4658 109.144 34.9152C107.623 33.3645 106.862 31.4298 106.862 29.1111ZM110.796 29.1111C110.796 30.4444 111.188 31.553 111.97 32.437C112.767 33.321 113.774 33.763 114.992 33.763C116.209 33.763 117.209 33.321 117.992 32.437C118.789 31.553 119.187 30.4444 119.187 29.1111C119.187 27.8359 118.789 26.7779 117.992 25.9374C117.209 25.0824 116.209 24.6549 114.992 24.6549C113.774 24.6549 112.767 25.0824 111.97 25.9374C111.188 26.7779 110.796 27.8359 110.796 29.1111Z" fill="white"/>
<path d="M124.715 29.1764C124.715 26.8866 125.476 24.9809 126.998 23.4593C128.534 21.9376 130.49 21.1768 132.867 21.1768C133.954 21.1768 135.012 21.3652 136.041 21.742C137.07 22.1043 137.954 22.6477 138.693 23.3723L136.932 26.2417C136.41 25.778 135.794 25.4012 135.084 25.1114C134.389 24.807 133.708 24.6549 133.041 24.6549C131.592 24.6549 130.498 25.0896 129.759 25.9592C129.02 26.8142 128.65 27.8576 128.65 29.0894C128.65 30.3502 129.027 31.4443 129.78 32.3718C130.548 33.2993 131.635 33.763 133.041 33.763C134.519 33.763 135.896 33.1254 137.171 31.8501L139.128 34.6326C137.447 36.3716 135.36 37.2411 132.867 37.2411C130.403 37.2411 128.425 36.4875 126.933 34.9804C125.454 33.4587 124.715 31.524 124.715 29.1764Z" fill="white"/>
<path d="M139.364 36.9802L144.646 21.4377H148.646L153.928 36.9802H150.015L149.059 33.7196H144.211L143.277 36.9802H139.364ZM145.103 30.6763H148.168L147.298 27.6547L146.668 24.9809H146.624C146.392 26.1113 146.182 27.0026 145.994 27.6547L145.103 30.6763Z" fill="white"/>
<path d="M155.495 36.9802V21.4377H159.299V33.7196H165.646V36.9802H155.495Z" fill="white"/>
<path d="M96.1189 60.4784V45.2334H99.8502V51.3314H105.394V45.2334H109.125V60.4784H105.394V54.5083H99.8502V60.4784H96.1189Z" fill="white"/>
<path d="M110.655 60.4784L115.836 45.2334H119.76L124.941 60.4784H121.103L120.165 57.2801H115.41L114.493 60.4784H110.655ZM116.284 54.2951H119.291L118.438 51.3314L117.819 48.7088H117.777C117.549 49.8175 117.343 50.6917 117.158 51.3314L116.284 54.2951Z" fill="white"/>
<path d="M125.334 52.8239C125.334 50.578 126.08 48.7088 127.573 47.2163C129.079 45.7238 130.998 44.9775 133.33 44.9775C134.396 44.9775 135.433 45.1623 136.443 45.5319C137.452 45.8872 138.319 46.4203 139.044 47.131L137.317 49.9455C136.805 49.4906 136.201 49.121 135.504 48.8368C134.822 48.5382 134.154 48.389 133.5 48.389C132.079 48.389 131.006 48.8154 130.281 49.6683C129.556 50.507 129.193 51.5304 129.193 52.7386C129.193 53.9753 129.563 55.0485 130.302 55.9582C131.055 56.8679 132.121 57.3228 133.5 57.3228C134.95 57.3228 136.3 56.6974 137.551 55.4465L139.47 58.1757C137.821 59.8814 135.774 60.7343 133.33 60.7343C130.913 60.7343 128.973 59.9951 127.509 58.5168C126.059 57.0243 125.334 55.1267 125.334 52.8239Z" fill="white"/>
<path d="M141.365 60.4784V45.2334H145.096V51.1182H146.631L149.787 45.2334H153.796L149.68 52.5254V52.568L154.03 60.4784H149.851L146.631 54.2951H145.096V60.4784H141.365Z" fill="white"/>
<path d="M154.708 58.5594L156.67 55.7237C157.153 56.1501 157.729 56.5197 158.397 56.8324C159.065 57.1451 159.712 57.3015 160.337 57.3015C160.835 57.3015 161.218 57.202 161.489 57.003C161.773 56.804 161.915 56.5481 161.915 56.2354C161.915 55.9084 161.744 55.6099 161.403 55.3399C161.076 55.0556 160.664 54.821 160.167 54.6363C159.669 54.4515 159.129 54.2169 158.546 53.9326C157.963 53.6341 157.423 53.3214 156.926 52.9945C156.428 52.6675 156.009 52.2198 155.668 51.6512C155.341 51.0684 155.177 50.4003 155.177 49.647C155.177 48.254 155.689 47.131 156.712 46.2781C157.75 45.4111 159.079 44.9775 160.7 44.9775C162.59 44.9775 164.182 45.5532 165.476 46.7046L163.898 49.7536C163.457 49.3698 162.931 49.05 162.32 48.7941C161.709 48.5382 161.112 48.4103 160.529 48.4103C159.989 48.4103 159.584 48.5098 159.314 48.7088C159.044 48.9078 158.909 49.1708 158.909 49.4977C158.909 49.8247 159.072 50.1232 159.399 50.3932C159.74 50.6633 160.16 50.8907 160.657 51.0755C161.155 51.2461 161.695 51.4735 162.277 51.7578C162.86 52.0279 163.4 52.3264 163.898 52.6533C164.395 52.9661 164.808 53.4138 165.135 53.9966C165.476 54.5652 165.646 55.2262 165.646 55.9795C165.646 57.3299 165.163 58.4599 164.196 59.3697C163.244 60.2794 161.922 60.7343 160.231 60.7343C159.207 60.7343 158.205 60.5495 157.224 60.1799C156.258 59.8103 155.419 59.2702 154.708 58.5594Z" fill="white"/>
<path fill-rule="evenodd" clip-rule="evenodd" d="M38.801 67.4802C45.1523 67.4802 50.301 62.3314 50.301 55.9802C50.301 53.6678 49.6185 51.5148 48.444 49.7117C51.4347 52.5375 53.301 56.5409 53.301 60.9802C53.301 69.5406 46.3614 76.4802 37.801 76.4802C29.2406 76.4802 22.301 69.5406 22.301 60.9802C22.301 54.3471 26.4675 48.6871 32.3262 46.4747C29.2925 48.5452 27.301 52.0301 27.301 55.9802C27.301 62.3314 32.4497 67.4802 38.801 67.4802Z" fill="#1C57F0"/>
<path fill-rule="evenodd" clip-rule="evenodd" d="M66.9077 41.4418C66.4369 47.7756 60.9206 52.5284 54.5868 52.0576C52.2808 51.8862 50.1844 51.046 48.4733 49.741C51.0696 52.933 54.9236 55.0909 59.3507 55.42C67.8875 56.0546 75.3225 49.6486 75.9571 41.1117C76.5917 32.5748 70.1856 25.1399 61.6488 24.5053C55.0339 24.0136 49.0807 27.7491 46.4401 33.4276C48.7298 30.5557 52.3527 28.8281 56.2919 29.1209C62.6257 29.5917 67.3785 35.108 66.9077 41.4418Z" fill="#1C57F0"/>
<path d="M30.51 70.4801C31.6572 74.4956 35.01 75.8135 36.51 75.9802C32.6766 76.1468 24.1196 73.8452 22.51 62.9802C20.51 49.4802 33.4605 45.4801 36.01 45.4801C37.51 45.4801 40.01 45.4801 41.51 48.4801C43.01 51.4801 41.9149 54.0753 41.01 54.9801L33.51 62.4801C33.01 62.9801 29.51 66.9801 30.51 70.4801Z" fill="#648CF5"/>
<path d="M70.5141 33.396C74.4334 34.8377 75.4992 38.2789 75.5542 39.7872C76.0045 35.9767 74.3436 27.2726 63.6278 24.862C50.3132 21.8667 45.3642 34.485 45.1752 37.0275C45.064 38.5234 44.8786 41.0165 47.7592 42.7348C50.6397 44.453 53.3089 43.5533 54.2784 42.718L62.3137 35.7946C62.8494 35.3331 67.0979 32.1392 70.5141 33.396Z" fill="#648CF5"/>
<path fill-rule="evenodd" clip-rule="evenodd" d="M38.8687 9.58528C32.5175 9.61048 27.3892 14.7796 27.4144 21.1308C27.4236 23.4432 28.1146 25.5934 29.2963 27.3918C26.2943 24.578 24.4122 20.582 24.3946 16.1428C24.3606 7.58242 31.2726 0.615354 39.833 0.581382C48.3933 0.547411 55.3604 7.4594 55.3943 16.0197C55.4207 22.6528 51.2766 28.3292 45.4268 30.5648C48.4522 28.4823 50.4299 24.9896 50.4142 21.0396C50.389 14.6883 45.2199 9.56008 38.8687 9.58528Z" fill="#1C57F0"/>
<path fill-rule="evenodd" clip-rule="evenodd" d="M10.8655 35.735C11.3112 29.3994 16.8085 24.6246 23.1442 25.0703C25.4508 25.2326 27.5506 26.0645 29.2668 27.3626C26.6579 24.181 22.7954 22.0384 18.367 21.7269C9.82771 21.1261 2.41825 27.5616 1.81752 36.101C1.2168 44.6403 7.6523 52.0497 16.1916 52.6504C22.8083 53.1159 28.7467 49.3568 31.3648 43.6679C29.0865 46.5488 25.4705 48.2908 21.5302 48.0136C15.1945 47.5679 10.4198 42.0706 10.8655 35.735Z" fill="#1C57F0"/>
<path d="M47.1477 6.55238C45.9845 2.54153 42.6266 1.23695 41.1259 1.07623C44.9586 0.894357 53.5247 3.16201 55.1774 14.0206C57.231 27.5125 44.2965 31.5639 41.747 31.574C40.247 31.58 37.747 31.5899 36.2351 28.5959C34.7232 25.6018 35.808 23.0024 36.7093 22.0939L44.1795 14.5642C44.6775 14.0622 48.1616 10.0484 47.1477 6.55238Z" fill="#648CF5"/>
<path d="M7.2911 43.795C3.36607 42.3688 2.2867 38.9319 2.22571 37.4239C1.79045 41.2361 3.48592 49.9335 14.2112 52.3016C27.5376 55.2441 32.4365 42.6062 32.6154 40.063C32.7207 38.5667 32.8961 36.0728 30.0088 34.366C27.1214 32.6592 24.4559 33.5695 23.4897 34.4086L15.4819 41.3638C14.9481 41.8275 10.7123 45.0382 7.2911 43.795Z" fill="#648CF5"/>
</svg>
