<svg width="36" height="37" viewBox="0 0 36 37" fill="none" xmlns="http://www.w3.org/2000/svg">
<g clip-path="url(#clip0_53_3673)">
<path d="M6.75 9.62421V2.87421C6.75 2.48421 6.795 2.10921 6.9 1.74921H2.625C1.185 1.74921 0 2.93421 0 4.37421V11.1242C0 12.5642 1.185 13.7492 2.625 13.7492H3.18L5.1 16.2992C5.31 16.5692 5.625 16.7342 5.955 16.7492H6C6.33 16.7492 6.63 16.6142 6.84 16.3592L9.09 13.7942C7.695 12.9242 6.75 11.3792 6.75 9.62421Z" fill="#1C57F0"/>
<path d="M33.3752 1.74921H29.1002C29.2052 2.10921 29.2502 2.48421 29.2502 2.87421V9.62421C29.2502 11.3792 28.3052 12.9242 26.9102 13.7942L29.1602 16.3592C29.3702 16.6142 29.6702 16.7492 30.0002 16.7492H30.0452C30.3752 16.7342 30.6902 16.5692 30.9002 16.2992L32.8052 13.7492H33.3752C34.8152 13.7492 36.0002 12.5642 36.0002 11.1242V4.37421C36.0002 2.93421 34.8152 1.74921 33.3752 1.74921Z" fill="#1C57F0"/>
<path d="M18 15.2492C17.9865 15.2492 17.9715 15.2492 17.958 15.2492C17.619 15.2357 17.304 15.0707 17.1 14.7992L15.1875 12.2492H11.625C10.1775 12.2492 9 11.0717 9 9.62421V2.87421C9 1.42671 10.1775 0.249207 11.625 0.249207H24.375C25.8225 0.249207 27 1.42671 27 2.87421V9.62421C27 11.0717 25.8225 12.2492 24.375 12.2492H21.135L18.846 14.8652C18.633 15.1097 18.324 15.2492 18 15.2492Z" fill="#1C57F0"/>
<path d="M6 25.7492C7.65685 25.7492 9 24.4061 9 22.7492C9 21.0924 7.65685 19.7492 6 19.7492C4.34315 19.7492 3 21.0924 3 22.7492C3 24.4061 4.34315 25.7492 6 25.7492Z" fill="#1C57F0"/>
<path d="M10.005 27.8492C8.49 28.9892 7.5 30.8192 7.5 32.8742V33.2492H1.125C0.51 33.2492 0 32.7392 0 32.1242V31.3742C0 29.0942 1.845 27.2492 4.125 27.2492H7.875C8.655 27.2492 9.39 27.4742 10.005 27.8492Z" fill="#1C57F0"/>
<path d="M30 25.7492C31.6569 25.7492 33 24.4061 33 22.7492C33 21.0924 31.6569 19.7492 30 19.7492C28.3431 19.7492 27 21.0924 27 22.7492C27 24.4061 28.3431 25.7492 30 25.7492Z" fill="#1C57F0"/>
<path d="M35.9991 31.3742V32.1242C35.9991 32.7392 35.4891 33.2492 34.8741 33.2492H28.4991V32.8742C28.4991 30.8192 27.5091 28.9892 25.9941 27.8492C26.6091 27.4742 27.3441 27.2492 28.1241 27.2492H31.8741C34.1541 27.2492 35.9991 29.0942 35.9991 31.3742Z" fill="#1C57F0"/>
<path d="M18 26.4992C20.4853 26.4992 22.5 24.4845 22.5 21.9992C22.5 19.5139 20.4853 17.4992 18 17.4992C15.5147 17.4992 13.5 19.5139 13.5 21.9992C13.5 24.4845 15.5147 26.4992 18 26.4992Z" fill="#1C57F0"/>
<path d="M22.125 28.7492H13.875C11.5995 28.7492 9.75 30.5987 9.75 32.8742V35.1242C9.75 35.7452 10.254 36.2492 10.875 36.2492H25.125C25.746 36.2492 26.25 35.7452 26.25 35.1242V32.8742C26.25 30.5987 24.4005 28.7492 22.125 28.7492Z" fill="#1C57F0"/>
</g>
<defs>
<clipPath id="clip0_53_3673">
<rect width="36" height="36" fill="white" transform="translate(0 0.249207)"/>
</clipPath>
</defs>
</svg>
