<svg width="43" height="43" viewBox="0 0 43 43" fill="none" xmlns="http://www.w3.org/2000/svg">
<g clip-path="url(#clip0_53_3532)">
<path d="M42.303 33.1344L37.7941 28.625C37.3291 29.6036 36.4398 30.3555 35.3115 30.6235L34.6972 30.7694L34.5513 31.3841C34.302 32.4341 33.1294 34.4112 30.6614 34.2105L30.0313 34.1593L29.7027 34.6987C29.1494 35.6065 28.2208 36.227 27.1885 36.411L33.1078 42.3296C33.4093 42.6312 33.8455 42.7551 34.2606 42.6571C34.6756 42.5592 35.0103 42.2532 35.1452 41.8487L36.8143 36.8409L41.8221 35.1718C42.2267 35.0369 42.5326 34.7022 42.6305 34.2871C42.7285 33.8721 42.6045 33.4359 42.303 33.1344Z" fill="#1C57F0"/>
<path d="M13.6248 34.6988L13.2962 34.1594L12.6661 34.2106C10.198 34.4113 9.02549 32.4341 8.7762 31.3842L8.63027 30.7695L8.01602 30.6236C6.88768 30.3556 5.99838 29.6037 5.53342 28.6251L1.02449 33.1344C0.722946 33.436 0.598997 33.8722 0.697024 34.2872C0.79497 34.7023 1.10095 35.037 1.50544 35.1719L6.51329 36.8409L8.18238 41.8488C8.31723 42.2534 8.65192 42.5593 9.067 42.6572C9.48208 42.7552 9.91824 42.6313 10.2198 42.3297L16.1391 36.4111C15.1066 36.227 14.178 35.6066 13.6248 34.6988Z" fill="#1C57F0"/>
<path d="M27.6018 33.4181L28.7196 31.5839L30.8607 31.7578C31.465 31.8068 32.0171 31.4069 32.1574 30.8157L32.6537 28.7256L34.7431 28.2294C35.3342 28.0889 35.7344 27.5381 35.6852 26.9326L35.5113 24.792L37.3454 23.6743C37.8642 23.3581 38.0746 22.7107 37.8408 22.15L37.0143 20.1676L38.4131 18.5378C38.8087 18.0769 38.8088 17.3961 38.4132 16.9351L37.0143 15.3047L37.8408 13.3222C38.0746 12.7615 37.8642 12.114 37.3454 11.7979L35.5113 10.6801L35.6852 8.53959C35.7343 7.93403 35.3342 7.38319 34.7431 7.24276L32.6537 6.74655L32.1574 4.65647C32.017 4.06527 31.465 3.66537 30.8607 3.71435L28.7196 3.88825L27.6018 2.05403C27.2856 1.5351 26.6378 1.32502 26.0773 1.55873L24.0951 2.38577L22.4654 0.986806C22.0044 0.59117 21.3235 0.59117 20.8626 0.986806L19.2329 2.3856L17.2507 1.55856C16.6899 1.32469 16.0425 1.53502 15.7263 2.05387L14.6084 3.88809L12.4673 3.71418C11.8618 3.6657 11.311 4.06511 11.1706 4.65631L10.6743 6.74638L8.58486 7.24276C7.99382 7.38319 7.59359 7.93403 7.64281 8.53959L7.81672 10.6801L5.98258 11.7979C5.46381 12.114 5.2534 12.7614 5.48719 13.3222L6.31374 15.3047L4.91478 16.9351C4.51922 17.3961 4.51931 18.0769 4.91494 18.5378L6.31374 20.1676L5.48736 22.15C5.25357 22.7107 5.46398 23.3581 5.98274 23.6743L7.81688 24.792L7.64297 26.9326C7.59384 27.5381 7.99399 28.0889 8.58502 28.2294L10.6744 28.7256L11.1708 30.8157C11.3112 31.4069 11.862 31.8063 12.4675 31.7578L14.6086 31.5839L15.7264 33.4181C16.0426 33.937 16.69 34.1473 17.2509 33.9134L19.2331 33.0864L20.8627 34.4851C21.3237 34.8807 22.0046 34.8807 22.4655 34.4851L24.0952 33.0864L26.0774 33.9134C26.6378 34.1471 27.2856 33.937 27.6018 33.4181ZM21.2161 26.5141C20.7357 26.9946 19.9565 26.9947 19.476 26.5141L12.2271 19.2653C11.7466 18.7848 11.7466 18.0057 12.2271 17.5251L15.955 13.7972C16.4354 13.3167 17.2145 13.3167 17.6951 13.7972L20.346 16.4481L26.2918 10.5023C26.7723 10.0217 27.5514 10.0217 28.0319 10.5023L31.7598 14.2301C32.2403 14.7106 32.2403 15.4897 31.7598 15.9702L21.2161 26.5141Z" fill="#1C57F0"/>
<path d="M21.2157 19.0583C20.7352 19.5388 19.9561 19.5388 19.4755 19.0583L16.8246 16.4075L14.8369 18.3952L20.3456 23.9038L29.1492 15.1002L27.1615 13.1125L21.2157 19.0583Z" fill="#1C57F0"/>
</g>
<defs>
<clipPath id="clip0_53_3532">
<rect width="42" height="42" fill="white" transform="translate(0.664062 0.690094)"/>
</clipPath>
</defs>
</svg>
