<svg width="36" height="34" viewBox="0 0 36 34" fill="none" xmlns="http://www.w3.org/2000/svg">
<g clip-path="url(#clip0_53_3669)">
<path d="M24.9728 2.09988H4.72949C2.54678 2.09988 0.771484 3.82445 0.771484 5.94481V23.1772C0.771484 23.9934 1.72161 24.4534 2.39229 23.988L8.02988 20.0807C8.50293 19.7533 9.05938 19.58 9.64043 19.58H22.0401C24.2229 19.58 25.9981 17.8554 25.9981 15.7351V3.09598C25.9981 2.54613 25.5388 2.09988 24.9728 2.09988ZM19.9921 14.1666H8.14473C7.57871 14.1666 7.11934 13.721 7.11934 13.1705C7.11934 12.6206 7.57871 12.1744 8.14473 12.1744H19.9921C20.5581 12.1744 21.0175 12.6206 21.0175 13.1705C21.0175 13.721 20.5581 14.1666 19.9921 14.1666ZM19.9921 9.51813H8.14473C7.57871 9.51813 7.11934 9.07254 7.11934 8.52203C7.11934 7.97219 7.57871 7.52594 8.14473 7.52594H19.9921C20.5581 7.52594 21.0175 7.97219 21.0175 8.52203C21.0175 9.07254 20.5581 9.51813 19.9921 9.51813Z" fill="#1C57F0"/>
<path d="M35.7716 13.6712V30.9029C35.7716 31.7136 34.8262 32.1825 34.1508 31.7138L28.5132 27.8071C28.0401 27.4797 27.4837 27.3064 26.9026 27.3064H14.5029C12.3202 27.3064 10.5449 25.5811 10.5449 23.4608V21.5722H22.0402C25.3536 21.5722 28.049 18.9538 28.049 15.7351V9.82559H31.8136C33.9963 9.82559 35.7716 11.5508 35.7716 13.6712Z" fill="#1C57F0"/>
</g>
<defs>
<clipPath id="clip0_53_3669">
<rect width="35" height="34" fill="white" transform="translate(0.771484)"/>
</clipPath>
</defs>
</svg>
