<svg width="37" height="36" viewBox="0 0 37 36" fill="none" xmlns="http://www.w3.org/2000/svg">
<g clip-path="url(#clip0_53_3538)">
<path d="M34.3535 29.3856H28.6263C25.0173 29.3856 22.081 26.5309 22.081 23.0221C22.081 19.5133 25.0173 16.6586 28.6263 16.6586H34.3535C34.8058 16.6586 35.1717 16.3028 35.1717 15.8631V13.4768C35.1717 11.8088 33.8409 10.4522 32.1595 10.3207L27.4607 2.3414C27.0252 1.60343 26.3221 1.07598 25.4807 0.856959C24.6434 0.639431 23.7677 0.753676 23.0183 1.17777L6.91034 10.295H4.08129C2.27639 10.295 0.808594 11.722 0.808594 13.4768V32.5674C0.808594 34.3222 2.27631 35.7492 4.08129 35.7492H31.899C33.7039 35.7492 35.1717 34.3223 35.1717 32.5674V30.1811C35.1717 29.7414 34.8058 29.3856 34.3535 29.3856ZM28.4754 7.26767L30.2581 10.295H23.1269L28.4754 7.26767ZM10.1626 10.295L23.842 2.55267C24.2119 2.34215 24.6441 2.28622 25.0573 2.39345C25.4751 2.50218 25.8235 2.76475 26.0401 3.13217L26.0418 3.13508L13.3926 10.295H10.1626Z" fill="#1C57F0"/>
<path d="M34.353 18.2495H28.6258C25.9188 18.2495 23.7168 20.3903 23.7168 23.0221C23.7168 25.6539 25.9188 27.7948 28.6258 27.7948H34.353C35.7065 27.7948 36.8075 26.7243 36.8075 25.4084V20.6358C36.8075 19.3199 35.7065 18.2495 34.353 18.2495ZM28.6258 24.613C27.7238 24.613 26.9895 23.8991 26.9895 23.0221C26.9895 22.1451 27.7238 21.4313 28.6258 21.4313C29.5278 21.4313 30.2621 22.1451 30.2621 23.0221C30.2622 23.8991 29.5279 24.613 28.6258 24.613Z" fill="#1C57F0"/>
</g>
<defs>
<clipPath id="clip0_53_3538">
<rect width="36" height="35" fill="white" transform="translate(0.808594 0.749207)"/>
</clipPath>
</defs>
</svg>
