<svg width="722" height="719" viewBox="0 0 722 719" fill="none" xmlns="http://www.w3.org/2000/svg">
<path fill-rule="evenodd" clip-rule="evenodd" d="M360.111 633.171C420.106 633.171 468.742 584.536 468.742 524.54C468.742 502.697 462.295 482.36 451.2 465.327C479.452 492.02 497.081 529.837 497.081 571.771C497.081 652.634 431.528 718.187 350.665 718.187C269.802 718.187 204.25 652.634 204.25 571.771C204.25 509.114 243.608 455.65 298.949 434.751C270.293 454.309 251.481 487.228 251.481 524.54C251.481 584.536 300.116 633.171 360.111 633.171Z" fill="#1C57F0"/>
<path fill-rule="evenodd" clip-rule="evenodd" d="M625.622 387.209C621.174 447.039 569.067 491.935 509.237 487.487C487.447 485.868 467.638 477.926 451.472 465.593C475.997 495.751 512.407 516.14 554.231 519.249C634.871 525.244 705.103 464.731 711.097 384.091C717.092 303.45 656.58 233.219 575.939 227.224C513.447 222.579 457.207 257.873 432.267 311.523C453.895 284.385 488.125 268.057 525.343 270.824C585.173 275.271 630.069 327.379 625.622 387.209Z" fill="#1C57F0"/>
<path d="M281.793 661.51C292.631 699.44 324.301 711.889 338.47 713.463C302.26 715.038 221.429 693.296 206.224 590.663C187.332 463.14 309.664 425.356 333.747 425.356C347.916 425.356 371.532 425.356 385.701 453.694C399.87 482.033 389.525 506.547 380.978 515.094L310.132 585.94C305.409 590.663 272.347 628.448 281.793 661.51Z" fill="#648CF5"/>
<path d="M659.679 311.207C696.702 324.826 706.769 357.332 707.289 371.579C711.543 335.585 695.853 253.365 594.63 230.593C468.859 202.299 422.109 321.494 420.324 345.511C419.273 359.641 417.523 383.191 444.733 399.422C471.943 415.654 497.156 407.155 506.314 399.264L582.217 333.865C587.277 329.505 627.409 299.336 659.679 311.207Z" fill="#648CF5"/>
<path fill-rule="evenodd" clip-rule="evenodd" d="M360.746 86.2874C300.752 86.5255 252.31 135.354 252.548 195.348C252.634 217.191 259.161 237.502 270.323 254.49C241.967 227.91 224.189 190.164 224.022 148.23C223.702 67.3682 288.993 1.55614 369.856 1.23524C450.718 0.914348 516.53 66.2061 516.851 147.068C517.099 209.725 477.954 263.346 422.695 284.464C451.274 264.792 469.955 231.799 469.807 194.486C469.569 134.492 420.741 86.0494 360.746 86.2874Z" fill="#1C57F0"/>
<path fill-rule="evenodd" clip-rule="evenodd" d="M96.2311 333.302C100.441 273.454 152.37 228.352 212.217 232.562C233.992 234.094 253.816 241.943 270.022 254.192C245.378 224.15 208.9 203.921 167.08 200.979C86.4161 195.304 16.4253 256.095 10.7508 336.759C5.07625 417.422 65.8669 487.413 146.531 493.088C209.02 497.483 265.103 461.991 289.842 408.272C268.32 435.465 234.175 451.905 196.971 449.288C137.124 445.078 92.021 393.149 96.2311 333.302Z" fill="#1C57F0"/>
<path d="M438.952 57.6383C427.964 19.7511 396.245 7.42789 382.069 5.90979C418.273 4.19173 499.19 25.6123 514.802 128.184C534.2 255.631 412.018 293.901 387.936 293.996C373.766 294.053 350.151 294.146 335.87 265.864C321.588 237.582 331.835 213.028 340.349 204.446L410.913 133.319C415.618 128.578 448.529 90.6621 438.952 57.6383Z" fill="#648CF5"/>
<path d="M62.4559 409.438C25.3794 395.966 15.1836 363.5 14.6074 349.255C10.4959 385.266 26.5116 467.423 127.824 489.793C253.707 517.587 299.983 398.208 301.673 374.184C302.668 360.05 304.325 336.493 277.051 320.37C249.776 304.247 224.597 312.846 215.47 320.773L139.827 386.472C134.785 390.852 94.7731 421.181 62.4559 409.438Z" fill="#648CF5"/>
</svg>
