<svg viewBox="0 0 20 24"  xmlns="http://www.w3.org/2000/svg" style="display:none">

	<symbol viewBox="0 0 16 14" id="telegram">
		<path d="M15.4 0.766728L12.9957 12.9265C12.9957 12.9265 12.6593 13.7696 11.7351 13.3653L6.18767 9.09825L6.16195 9.08568C6.91128 8.41068 12.7219 3.16957 12.9759 2.932C13.369 2.56406 13.125 2.34502 12.6685 2.62296L4.08545 8.09105L0.774123 6.97335C0.774123 6.97335 0.253018 6.78739 0.202886 6.38306C0.152095 5.97806 0.791273 5.75902 0.791273 5.75902L14.2905 0.446437C14.2905 0.446437 15.4 -0.0426012 15.4 0.766728V0.766728Z"/>
	</symbol>
	
	<symbol viewBox="0 0 19 13" id="youtube">
		<path fill-rule="evenodd" clip-rule="evenodd" d="M2.7284 11.969C2.4244 11.8791 2.14702 11.7191 1.91967 11.5025C1.69231 11.2859 1.52166 11.0192 1.42211 10.7247C0.853239 9.20271 0.684685 2.84737 1.78029 1.59276C2.14492 1.18462 2.65974 0.933344 3.213 0.893463C6.15216 0.584952 15.233 0.626087 16.2759 0.996301C16.5693 1.0892 16.8373 1.2457 17.0599 1.45407C17.2824 1.66244 17.4538 1.91728 17.5612 2.1995C18.1827 3.77291 18.2038 9.49065 17.4769 11.0024C17.2841 11.3959 16.9613 11.7146 16.5604 11.9073C15.4648 12.4421 4.18218 12.4318 2.7284 11.969V11.969ZM7.39525 8.98675L12.6626 6.31299L7.39525 3.61865V8.98675Z"/>
	</symbol>

	<symbol viewBox="0 0 16 18" id="tik-tok">
		<path d="M15.9747 4.83893C15.4228 4.83893 14.8763 4.73363 14.3663 4.52902C13.8564 4.32441 13.3931 4.02451 13.0028 3.64644C12.6126 3.26837 12.303 2.81953 12.0918 2.32555C11.8806 1.83158 11.7718 1.30213 11.7718 0.767456H8.76918V12.1579C8.7686 12.6773 8.59933 13.1832 8.28534 13.6041C7.97135 14.025 7.52858 14.3396 7.01978 14.5031C6.51098 14.6666 5.96196 14.6708 5.45053 14.5152C4.93911 14.3595 4.49122 14.0519 4.17035 13.6359C3.84949 13.2199 3.67192 12.7166 3.66281 12.1973C3.6537 11.6781 3.81352 11.1692 4.11961 10.7429C4.4257 10.3166 4.86254 9.99437 5.36821 9.82199C5.87388 9.6496 6.42273 9.63576 6.93697 9.78243V6.95484C5.84411 6.81208 4.7323 6.9957 3.75 7.4812C2.7677 7.96669 1.96167 8.73094 1.43953 9.6719C0.917401 10.6129 0.704016 11.6857 0.827874 12.7473C0.951733 13.8088 1.40694 14.8085 2.13271 15.6128C2.85848 16.4171 3.82026 16.9878 4.88964 17.2486C5.95902 17.5094 7.08509 17.448 8.11749 17.0725C9.14988 16.697 10.0395 16.0254 10.6674 15.1472C11.2954 14.2691 11.6319 13.2262 11.632 12.1579L11.7191 6.40036C12.9528 7.27775 14.4439 7.74985 15.9744 7.74765L15.9747 4.83893Z"/>
	</symbol>

	<symbol viewBox="0 0 21 21" id="chat">
		<path d="M21 8.61878C21 4.59454 17.0959 1.32063 12.2974 1.32063C7.4988 1.32063 3.59479 4.59457 3.59479 8.61878C3.59479 12.643 7.4988 15.9169 12.2974 15.9169C12.7009 15.9169 13.1058 15.8936 13.5038 15.8475C15.3521 17.0216 16.7165 17.6643 17.5622 17.7582C17.5916 17.7614 17.6212 17.7631 17.6502 17.7631C17.9218 17.7631 18.1732 17.6277 18.3229 17.4007C18.4903 17.1468 18.5012 16.8246 18.3521 16.5616C18.3452 16.5491 17.6926 15.3584 17.8809 14.221C19.8663 12.8316 21 10.8011 21 8.61878ZM9.93397 9.72101C9.22193 9.72101 8.64488 9.14382 8.64488 8.43188C8.64488 7.7199 9.22193 7.14275 9.93397 7.14275C10.6459 7.14275 11.2232 7.71994 11.2232 8.43188C11.2232 9.14382 10.6459 9.72101 9.93397 9.72101ZM14.6611 9.72101C13.9489 9.72101 13.3717 9.14382 13.3717 8.43188C13.3717 7.7199 13.9489 7.14275 14.6611 7.14275C15.373 7.14275 15.9502 7.71994 15.9502 8.43188C15.9502 9.14382 15.3729 9.72101 14.6611 9.72101Z"/>
		<path d="M5.43334 14.4578C4.56983 13.7428 3.88915 12.9059 3.41048 11.9703C2.90575 10.984 2.64988 9.93475 2.64988 8.85181C2.64988 7.76884 2.90579 6.71963 3.41048 5.73328C3.44911 5.65779 3.48957 5.58322 3.53078 5.509C1.39931 6.73016 0 8.76826 0 11.0722C0 13.1421 1.11502 15.0613 3.06298 16.3522C3.42276 17.7666 2.58787 19.263 2.57905 19.2783C2.5293 19.366 2.53297 19.4743 2.58849 19.5585C2.63852 19.6344 2.723 19.6793 2.81266 19.6793C2.82258 19.6793 2.83246 19.6788 2.84248 19.6777C3.81706 19.5694 5.53326 18.5789 6.83341 17.7437C7.27128 17.8031 7.71891 17.8332 8.1655 17.8332C9.8735 17.8332 11.4604 17.3964 12.7726 16.6511C12.4795 16.6746 12.1842 16.6871 11.8897 16.6871C9.46256 16.6871 7.16965 15.8954 5.43334 14.4578Z"/>
	</symbol>

	<symbol viewBox="0 0 6 4" id="drop-down-arrow">
		<path d="M1 1L3 3L5 1" stroke="white"/>
	</symbol>

	<symbol viewBox="0 0 22 22" id="search">
		<path d="M21.2971 20.0385L16.0611 14.5928C17.4074 12.9924 18.145 10.9788 18.145 8.88249C18.145 3.98476 14.1602 0 9.2625 0C4.36477 0 0.380005 3.98476 0.380005 8.88249C0.380005 13.7802 4.36477 17.765 9.2625 17.765C11.1012 17.765 12.8533 17.2104 14.3514 16.1576L19.6272 21.6447C19.8477 21.8737 20.1443 22 20.4622 22C20.763 22 21.0484 21.8853 21.2651 21.6768C21.7254 21.2338 21.7401 20.4992 21.2971 20.0385ZM9.2625 2.31717C12.8827 2.31717 15.8278 5.2623 15.8278 8.88249C15.8278 12.5027 12.8827 15.4478 9.2625 15.4478C5.6423 15.4478 2.69718 12.5027 2.69718 8.88249C2.69718 5.2623 5.6423 2.31717 9.2625 2.31717Z"/>
	</symbol>

	<symbol viewBox="0 0 13 11" id="star">
		<path d="M11.7448 5.29753L9.94458 7.0524L10.3696 9.53011C10.5283 10.4574 9.55436 11.1614 8.7252 10.7247L6.50001 9.5549L4.27482 10.7247C3.44753 11.1611 2.47147 10.4587 2.63045 9.53011L3.05544 7.0524L1.25524 5.29753C0.582728 4.64258 0.954277 3.49921 1.88317 3.36452L4.37115 3.00292L5.48357 0.748692C5.89801 -0.0909172 7.09868 -0.0960525 7.51645 0.748692L8.62887 3.00292L11.1168 3.36452C12.0459 3.49921 12.4172 4.64265 11.7448 5.29753Z"/>
	</symbol>

	<symbol viewBox="0 0 11 20" id="facebook">
		<path d="M6.98506 10.3889H10.0559L10.538 7.25036H6.98443V5.53501C6.98443 4.23122 7.40786 3.07509 8.62007 3.07509H10.568V0.336191C10.2257 0.289694 9.5019 0.187904 8.13419 0.187904C5.27823 0.187904 3.60387 1.70533 3.60387 5.16241V7.25036H0.667969V10.3889H3.60387V19.0152C4.18531 19.1032 4.77423 19.1629 5.37878 19.1629C5.92524 19.1629 6.45858 19.1126 6.98506 19.041V10.3889Z"/>
	</symbol>

	<symbol viewBox="0 0 16 14" id="twitter">
		<path d="M15.7386 1.8804C15.1786 2.1279 14.5386 2.2929 13.8986 2.3754C14.5386 1.9629 15.0986 1.30291 15.3386 0.560407C14.6986 0.972907 14.0586 1.22041 13.2586 1.38541C12.6986 0.725407 11.8186 0.312904 10.9386 0.312904C9.17859 0.312904 7.73859 1.7979 7.73859 3.6129C7.73859 3.8604 7.73859 4.1079 7.81859 4.3554C5.17859 4.1904 2.77859 2.8704 1.17859 0.890402C0.938589 1.3854 0.778589 1.9629 0.778589 2.5404C0.778589 3.6954 1.33859 4.6854 2.21859 5.2629C1.65859 5.2629 1.17859 5.0979 0.778589 4.8504C0.778589 6.4179 1.89859 7.8204 3.33859 8.0679C3.09859 8.1504 2.77859 8.1504 2.45859 8.1504C2.21859 8.1504 2.05859 8.1504 1.81859 8.0679C2.21859 9.3879 3.41859 10.3779 4.85859 10.3779C3.73859 11.2854 2.37859 11.7804 0.858594 11.7804C0.618594 11.7804 0.378594 11.7804 0.0585938 11.6979C1.49859 12.6054 3.17859 13.1829 5.01859 13.1829C10.9386 13.1829 14.1386 8.1504 14.1386 3.7779V3.3654C14.7786 3.1179 15.3386 2.5404 15.7386 1.8804Z"/>
	</symbol>

	<symbol viewBox="0 0 15 17" id="twitch">
		<path d="M2.99526 0.310658L0.0488281 3.25709V13.8642H3.58454V16.8107L6.53097 13.8642H8.88811L14.1917 8.56066V0.310658H2.99526ZM13.0131 7.97137L10.656 10.3285H8.29883L6.23633 12.391V10.3285H3.58454V1.48923H13.0131V7.97137Z"/>
		<path d="M11.2453 3.55173H10.0667V7.08744H11.2453V3.55173Z"/>
		<path d="M8.00419 3.55173H6.82561V7.08744H8.00419V3.55173Z"/>
	</symbol>

	<symbol viewBox="0 0 16 4" id="etc">
		<path d="M3.61621 2.03186C3.61621 2.8762 2.93174 3.56067 2.0874 3.56067C1.24306 3.56067 0.558594 2.8762 0.558594 2.03186C0.558594 1.18752 1.24306 0.503052 2.0874 0.503052C2.93174 0.503052 3.61621 1.18752 3.61621 2.03186Z"/>
		<path d="M9.78809 2.03186C9.78809 2.8762 9.10362 3.56067 8.25928 3.56067C7.41494 3.56067 6.73047 2.8762 6.73047 2.03186C6.73047 1.18752 7.41494 0.503052 8.25928 0.503052C9.10362 0.503052 9.78809 1.18752 9.78809 2.03186Z"/>
		<path d="M15.958 2.03186C15.958 2.8762 15.2735 3.56067 14.4292 3.56067C13.5849 3.56067 12.9004 2.8762 12.9004 2.03186C12.9004 1.18752 13.5849 0.503052 14.4292 0.503052C15.2735 0.503052 15.958 1.18752 15.958 2.03186Z"/>
	</symbol>

	<symbol viewBox="0 0 39 39" id="play">
		<path d="M19.1055 0.0848999C8.62823 0.0848999 0.105469 8.60848 0.105469 19.0849C0.105469 29.5613 8.62823 38.0849 19.1055 38.0849C29.5827 38.0849 38.1055 29.5613 38.1055 19.0849C38.1055 8.60848 29.5827 0.0848999 19.1055 0.0848999ZM26.6588 19.7506L15.5755 26.8756C15.4456 26.9598 15.2956 27.0016 15.1472 27.0016C15.0173 27.0016 14.8858 26.9691 14.7683 26.905C14.5132 26.7658 14.3555 26.4998 14.3555 26.2099V11.9599C14.3555 11.67 14.5132 11.404 14.7683 11.2648C15.0188 11.1272 15.3327 11.1357 15.5755 11.2942L26.6588 18.4192C26.8846 18.5646 27.0222 18.8159 27.0222 19.0849C27.0222 19.3539 26.8846 19.6052 26.6588 19.7506Z"/>
	</symbol>

	<symbol viewBox="0 0 17 16" id="size">
		<path d="M14.5981 0.39325H2.15182C1.69819 0.39325 1.26314 0.560767 0.942375 0.85895C0.62161 1.15713 0.441406 1.56156 0.441406 1.98325V4.16075C0.441406 4.26021 0.483907 4.35559 0.559559 4.42591C0.635211 4.49624 0.737818 4.53575 0.844806 4.53575H1.51714V13.5532C1.51714 13.9749 1.69734 14.3794 2.01811 14.6775C2.33887 14.9757 2.77392 15.1432 3.22755 15.1432H13.5223C13.9759 15.1432 14.411 14.9757 14.7318 14.6775C15.0525 14.3794 15.2327 13.9749 15.2327 13.5532V4.53575H15.9051C16.0121 4.53575 16.1147 4.49624 16.1903 4.42591C16.266 4.35559 16.3085 4.26021 16.3085 4.16075V1.98325C16.3085 1.56156 16.1283 1.15713 15.8075 0.85895C15.4867 0.560767 15.0517 0.39325 14.5981 0.39325ZM9.68195 8.57075H7.06792C6.67563 8.57075 6.29941 8.42588 6.02202 8.16802C5.74463 7.91016 5.58879 7.56042 5.58879 7.19575C5.58879 6.83108 5.74463 6.48134 6.02202 6.22348C6.29941 5.96562 6.67563 5.82075 7.06792 5.82075H9.68195C10.0742 5.82075 10.4505 5.96562 10.7279 6.22348C11.0052 6.48134 11.1611 6.83108 11.1611 7.19575C11.1611 7.56042 11.0052 7.91016 10.7279 8.16802C10.4505 8.42588 10.0742 8.57075 9.68195 8.57075ZM15.5017 3.78575H1.24821V1.98325C1.24892 1.76067 1.34435 1.5474 1.51365 1.39001C1.68296 1.23262 1.91239 1.14391 2.15182 1.14325H14.5981C14.8375 1.14391 15.0669 1.23262 15.2362 1.39001C15.4055 1.5474 15.501 1.76067 15.5017 1.98325V3.78575Z"/>
	</symbol>

	<symbol viewBox="0 0 25 16" id="discord">
		<path d="M21.883 2.02667C20.2316 0.746649 18.25 0.106674 16.1582 0L15.8279 0.320023C17.6995 0.746648 19.3509 1.59997 20.8922 2.77332C19.0206 1.81332 16.9289 1.17335 14.727 0.959997C14.0665 0.853323 13.516 0.853323 12.8555 0.853323C12.1949 0.853323 11.6444 0.853323 10.9839 0.959997C8.78207 1.17335 6.69032 1.81332 4.81877 2.77332C6.36002 1.59997 8.01144 0.746648 9.88299 0.320023L9.55269 0C7.46094 0.106674 5.47929 0.746649 3.82794 2.02667C1.95639 5.44003 0.965561 9.28002 0.855469 13.2266C2.50682 14.9333 4.81877 16 7.24082 16C7.24082 16 8.01144 15.1467 8.56187 14.4C7.13072 14.08 5.80959 13.3333 4.92887 12.16C5.69949 12.5866 6.47012 13.0133 7.24082 13.3333C8.23164 13.76 9.22247 13.9733 10.2133 14.1867C11.094 14.2933 11.9747 14.4 12.8555 14.4C13.7362 14.4 14.6169 14.2933 15.4976 14.1867C16.4885 13.9733 17.4793 13.76 18.4701 13.3333C19.2408 13.0133 20.0114 12.5866 20.7821 12.16C19.9013 13.3333 18.5802 14.08 17.1491 14.4C17.6995 15.1467 18.4701 16 18.4701 16C20.8922 16 23.2041 14.9333 24.8555 13.2266C24.7454 9.28002 23.7545 5.44003 21.883 2.02667ZM9.22247 11.3066C8.12154 11.3066 7.13072 10.3466 7.13072 9.17335C7.13072 8 8.12154 7.04 9.22247 7.04C10.3234 7.04 11.3142 8 11.3142 9.17335C11.3142 10.3466 10.3234 11.3066 9.22247 11.3066ZM16.4885 11.3066C15.3875 11.3066 14.3967 10.3466 14.3967 9.17335C14.3967 8 15.3875 7.04 16.4885 7.04C17.5894 7.04 18.5802 8 18.5802 9.17335C18.5802 10.3466 17.5894 11.3066 16.4885 11.3066Z"/>
	</symbol>

	<symbol viewBox="0 0 19 13" id="email">
		<path d="M12.0616 7.59274L10.5541 9.02134C9.94273 9.60073 8.86709 9.61322 8.24254 9.02134L6.73494 7.59274L1.32031 12.7232C1.52186 12.8112 1.74409 12.8637 1.98034 12.8637H16.8163C17.0525 12.8637 17.2747 12.8112 17.4762 12.7232L12.0616 7.59274Z"/>
		<path d="M16.8162 0.910583H1.98027C1.74402 0.910583 1.52179 0.963111 1.32031 1.05113L7.10622 6.53373C7.10661 6.5341 7.10707 6.53416 7.10745 6.53453C7.10784 6.53489 7.10791 6.53539 7.10791 6.53539L8.98923 8.31807C9.18905 8.50679 9.60748 8.50679 9.80731 8.31807L11.6882 6.53569C11.6882 6.53569 11.6887 6.53489 11.6891 6.53453C11.6891 6.53453 11.6899 6.5341 11.6903 6.53373L17.4761 1.0511C17.2746 0.963045 17.0525 0.910583 16.8162 0.910583Z"/>
		<path d="M0.566695 1.7477C0.462422 1.94686 0.398438 2.16792 0.398438 2.40473V11.3696C0.398438 11.6064 0.462352 11.8274 0.56666 12.0266L5.99067 6.88731L0.566695 1.7477Z"/>
		<path d="M18.2306 1.74763L12.8066 6.88731L18.2306 12.0267C18.3349 11.8275 18.3988 11.6064 18.3988 11.3696V2.40472C18.3988 2.16785 18.3349 1.94679 18.2306 1.74763Z"/>
	</symbol>

</svg>