<svg width="26" height="24" viewBox="0 0 26 24" fill="none" xmlns="http://www.w3.org/2000/svg">
<g clip-path="url(#clip0_53_2829)">
<path d="M3.9575 18.8839C3.81253 19.0047 3.63606 19.0839 3.44769 19.1127C3.25933 19.1415 3.06645 19.1189 2.8905 19.0472L1.01682 18.2808C0.829926 18.2048 0.670129 18.0768 0.557377 17.9128C0.444625 17.7488 0.383911 17.556 0.382812 17.3586L0.382813 6.63889C0.383911 6.44145 0.444625 6.2487 0.557377 6.08469C0.670129 5.92069 0.829926 5.79269 1.01682 5.71668L2.8905 4.96283C3.06645 4.89119 3.25933 4.86852 3.44769 4.89736C3.63606 4.92619 3.81253 5.0054 3.9575 5.12616L4.37759 5.4654C4.2924 5.40568 4.19195 5.37007 4.08731 5.3625C3.98268 5.35492 3.87793 5.37567 3.78463 5.42245C3.69132 5.46924 3.61308 5.54024 3.55854 5.62764C3.504 5.71503 3.47528 5.81541 3.47554 5.9177V18.0798C3.47528 18.1821 3.504 18.2825 3.55854 18.3699C3.61308 18.4572 3.69132 18.5282 3.78463 18.575C3.87793 18.6218 3.98268 18.6426 4.08731 18.635C4.19195 18.6274 4.2924 18.5918 4.37759 18.5321L3.9575 18.8839Z" fill="#52218A"/>
<path d="M1.01682 18.2808C0.829926 18.2048 0.670129 18.0768 0.557377 17.9128C0.444625 17.7488 0.383911 17.5561 0.382812 17.3586L0.382813 17.2757C0.384083 17.3917 0.420984 17.5047 0.488755 17.6001C0.556526 17.6955 0.652055 17.7688 0.763017 17.8108C0.873978 17.8527 0.995279 17.8612 1.11127 17.8353C1.22725 17.8093 1.3326 17.7501 1.41372 17.6652L17.3928 0.439784C17.6191 0.220249 17.9096 0.0743766 18.2243 0.0221872C18.539 -0.0300022 18.8625 0.0140494 19.1505 0.148296L24.2484 2.54051C24.511 2.6636 24.7325 2.85652 24.8876 3.09704C25.0426 3.33755 25.1248 3.61588 25.1247 3.89995V3.95774C25.1245 3.77753 25.0719 3.60106 24.973 3.44883C24.8741 3.2966 24.7329 3.17487 24.5658 3.09776C24.3987 3.02066 24.2126 2.99136 24.0292 3.01326C23.8457 3.03516 23.6724 3.10736 23.5293 3.22148L4.37759 18.5321L3.9575 18.8839C3.81253 19.0047 3.63606 19.0839 3.44769 19.1127C3.25933 19.1416 3.06645 19.1189 2.8905 19.0473L1.01682 18.2808Z" fill="#6C33AF"/>
<path d="M1.01682 5.71669C0.829926 5.7927 0.670129 5.92069 0.557377 6.0847C0.444625 6.2487 0.383911 6.44145 0.382812 6.63889L0.382813 6.72182C0.384083 6.6058 0.420984 6.49281 0.488755 6.39744C0.556526 6.30207 0.652055 6.22869 0.763017 6.18676C0.873978 6.14484 0.995279 6.1363 1.11127 6.16225C1.22725 6.1882 1.3326 6.24744 1.41372 6.33233L17.3928 23.5577C17.6191 23.7773 17.9096 23.9232 18.2243 23.9753C18.539 24.0275 18.8625 23.9835 19.1505 23.8492L24.2484 21.457C24.511 21.3339 24.7325 21.141 24.8876 20.9005C25.0426 20.66 25.1248 20.3817 25.1247 20.0976V20.0398C25.1245 20.22 25.0719 20.3965 24.973 20.5487C24.8741 20.7009 24.7329 20.8227 24.5658 20.8998C24.3987 20.9769 24.2126 21.0062 24.0292 20.9843C23.8457 20.9624 23.6724 20.8902 23.5293 20.7761L4.37759 5.4654L3.9575 5.11361C3.81124 4.99491 3.63415 4.918 3.44583 4.89139C3.2575 4.86478 3.0653 4.88951 2.8905 4.96284L1.01682 5.71669Z" fill="#854CC7"/>
<path d="M19.1503 23.8492C18.8623 23.9834 18.5387 24.0275 18.224 23.9753C17.9093 23.9231 17.6189 23.7772 17.3926 23.5577C17.5196 23.6806 17.6811 23.7642 17.8567 23.7979C18.0323 23.8316 18.2142 23.8138 18.3795 23.747C18.5448 23.6801 18.6861 23.567 18.7857 23.422C18.8852 23.277 18.9385 23.1065 18.9389 22.932V1.07043C18.9396 0.895502 18.887 0.724327 18.7878 0.578546C18.6886 0.432765 18.5474 0.318923 18.3819 0.251415C18.2163 0.183906 18.034 0.165763 17.8579 0.199279C17.6818 0.232794 17.5199 0.316463 17.3926 0.439708C17.6189 0.220173 17.9093 0.0743003 18.224 0.0221109C18.5387 -0.0300785 18.8623 0.0139731 19.1503 0.14822L24.2481 2.53792C24.5107 2.66101 24.7323 2.85393 24.8873 3.09445C25.0423 3.33496 25.1245 3.61329 25.1244 3.89736V20.1001C25.1245 20.3841 25.0423 20.6625 24.8873 20.903C24.7323 21.1435 24.5107 21.3364 24.2481 21.4595L19.1503 23.8492Z" fill="#B179F1"/>
<g opacity="0.25">
<path fill-rule="evenodd" clip-rule="evenodd" d="M18.1377 23.9598C18.4784 24.0356 18.8354 23.9966 19.1505 23.8492L24.2484 21.4595C24.511 21.3364 24.7325 21.1435 24.8876 20.903C25.0426 20.6625 25.1248 20.3841 25.1247 20.1001V3.89737C25.1248 3.6133 25.0426 3.33497 24.8876 3.09446C24.7325 2.85394 24.511 2.66103 24.2484 2.53793L19.1505 0.148232C18.7898 -0.0208187 18.376 -0.0469398 17.9959 0.0753601C17.7686 0.149601 17.5622 0.274337 17.3928 0.43972L9.17648 9.29994L4.37759 5.46537L3.9575 5.11358C3.83115 5.00825 3.68056 4.93428 3.51855 4.89796C3.35655 4.86164 3.18794 4.86406 3.0271 4.90501C2.98 4.91516 2.93419 4.93032 2.8905 4.95024L1.01682 5.71665C0.841453 5.78725 0.689467 5.90367 0.577603 6.05308C0.465738 6.2025 0.398334 6.37911 0.382812 6.56348C0.382812 6.5886 0.382812 6.61373 0.382812 6.63886V17.3586C0.382812 17.3837 0.382812 17.4088 0.382812 17.434C0.398334 17.6183 0.465738 17.7949 0.577603 17.9444C0.689467 18.0938 0.841453 18.2102 1.01682 18.2808L2.8905 19.0346C2.93419 19.0546 2.98 19.0697 3.0271 19.0799C3.18794 19.1208 3.35655 19.1232 3.51855 19.0869C3.68056 19.0506 3.83115 18.9766 3.9575 18.8713L4.37759 18.5321L9.17648 14.6975L17.3928 23.5577C17.5976 23.757 17.8557 23.8963 18.1377 23.9598ZM18.9392 6.89266L12.5501 11.9987L18.9392 17.1048V6.89266ZM3.47554 8.54861L6.67395 11.9987L3.47554 15.4488V8.54861Z" fill="url(#paint0_linear_53_2829)"/>
</g>
</g>
<defs>
<linearGradient id="paint0_linear_53_2829" x1="12.7537" y1="-2.46691e-05" x2="12.7537" y2="23.9975" gradientUnits="userSpaceOnUse">
<stop stop-color="white"/>
<stop offset="1" stop-color="white" stop-opacity="0"/>
</linearGradient>
<clipPath id="clip0_53_2829">
<rect width="24.7419" height="24" fill="white" transform="translate(0.382812)"/>
</clipPath>
</defs>
</svg>
