<svg width="93" height="93" viewBox="0 0 93 93" fill="none" xmlns="http://www.w3.org/2000/svg">
<g clip-path="url(#clip0_53_2976)">
<path d="M60.0924 41.6525L60.0248 8.87656C60.0157 4.42731 56.3883 0.80751 51.9389 0.80751H8.62305C4.16446 0.80751 0.537109 4.43486 0.537109 8.89327V41.5955C0.537109 46.0539 4.16446 49.6813 8.62305 49.6813H14.1934V55.0717C14.1934 57.2878 16.7311 58.5589 18.5059 57.2279L28.5648 49.6839L51.982 49.7547C56.5288 49.7547 60.1015 46.0916 60.0924 41.6525ZM30.1855 38.7207C28.697 38.7207 27.4902 37.5139 27.4902 36.0254C27.4902 34.5368 28.697 33.33 30.1855 33.33C31.6741 33.33 32.8809 34.5368 32.8809 36.0254C32.8809 37.5139 31.6741 38.7207 30.1855 38.7207ZM33.0606 27.4773V27.7599C33.0606 29.2484 31.8538 30.4552 30.3652 30.4552C28.8767 30.4552 27.6699 29.2484 27.6699 27.7599V26.0782C27.6699 24.2981 28.993 22.7695 30.7474 22.5224C32.0662 22.3368 33.0606 21.1896 33.0606 19.8537C33.0606 17.8895 30.896 16.2053 28.4196 17.79C27.1654 18.5921 25.4988 18.2257 24.6966 16.972C23.8945 15.7182 24.2607 14.0514 25.5146 13.2491C28.2943 11.4709 31.5575 11.2874 34.2442 12.7578C36.839 14.1786 38.4512 16.8974 38.4512 19.8538C38.4512 23.3144 36.2218 26.3537 33.0606 27.4773Z" fill="url(#paint0_linear_53_2976)"/>
<path d="M84.4512 38.7207H65.4769L65.483 41.6413C65.4967 48.2962 60.7306 53.6966 54.6238 54.8922H78.8809C80.3694 54.8922 81.5762 56.099 81.5762 57.5875C81.5762 59.076 80.3694 60.2828 78.8809 60.2828H46.5371C45.0486 60.2828 43.8418 59.076 43.8418 57.5875C43.8418 56.4887 44.5004 55.5452 45.4434 55.1256L33.0605 55.0881V79.329C33.0605 83.7874 36.6879 87.4147 41.1465 87.4147H59.3774L69.5896 92.5207C71.3764 93.4141 73.4902 92.1128 73.4902 90.11V87.4147H84.4512C88.9098 87.4147 92.5371 83.7876 92.5371 79.329V46.8064C92.5371 42.3478 88.9098 38.7207 84.4512 38.7207ZM78.8809 71.0635H46.5371C45.0486 71.0635 43.8418 69.8567 43.8418 68.3682C43.8418 66.8797 45.0486 65.6729 46.5371 65.6729H78.8809C80.3694 65.6729 81.5762 66.8797 81.5762 68.3682C81.5762 69.8567 80.3694 71.0635 78.8809 71.0635Z" fill="url(#paint1_linear_53_2976)"/>
</g>
<defs>
<linearGradient id="paint0_linear_53_2976" x1="86.921" y1="-12.064" x2="26.9813" y2="54.7812" gradientUnits="userSpaceOnUse">
<stop stop-color="#DC11E1"/>
<stop offset="1" stop-color="#6892FF"/>
</linearGradient>
<linearGradient id="paint1_linear_53_2976" x1="119.33" y1="26.499" x2="62.7988" y2="92.8076" gradientUnits="userSpaceOnUse">
<stop stop-color="#DC11E1"/>
<stop offset="1" stop-color="#6892FF"/>
</linearGradient>
<clipPath id="clip0_53_2976">
<rect width="92" height="92" fill="white" transform="translate(0.537109 0.80751)"/>
</clipPath>
</defs>
</svg>
