<svg width="42" height="43" viewBox="0 0 42 43" fill="none" xmlns="http://www.w3.org/2000/svg">
<path d="M33.0872 21.1081L29.3789 24.4585L32.7272 28.1645L36.4355 24.814L33.0872 21.1081Z" fill="#1C57F0"/>
<path d="M25.6953 24.1226L20.75 28.5741L25.2037 33.5218L30.149 29.0702L25.6953 24.1226Z" fill="#1C57F0"/>
<path d="M39.7748 19.9288L37.3047 22.1552L39.5311 24.6253L42.0012 22.3989L39.7748 19.9288Z" fill="#1C57F0"/>
<path d="M26.4932 5.82344L22.7812 9.16476L26.1226 12.8767L29.8345 9.53536L26.4932 5.82344Z" fill="#1C57F0"/>
<path d="M36.6116 12.5473L34.1465 14.7745L36.3759 17.242L38.841 15.0148L36.6116 12.5473Z" fill="#1C57F0"/>
<path d="M22.1863 15.5513L17.2363 20.0071L21.69 24.9548L26.64 20.499L22.1863 15.5513Z" fill="#1C57F0"/>
<path d="M18.6508 7.12019L13.7031 11.5739L18.1568 16.5215L23.1045 12.0678L18.6508 7.12019Z" fill="#1C57F0"/>
<path d="M29.9019 13.2879L26.1992 16.63L29.5477 20.3397L33.2504 16.9977L29.9019 13.2879Z" fill="#1C57F0"/>
<path d="M33.4369 5.21031L30.9668 7.43671L33.1932 9.90685L35.6633 7.68046L33.4369 5.21031Z" fill="#1C57F0"/>
<path d="M36.355 28.6072L32.6445 31.9505L35.99 35.6633L39.7004 32.3199L36.355 28.6072Z" fill="#1C57F0"/>
<path d="M29.8443 32.8131L25.0081 37.2724L16.8434 28.186L19.1142 26.1875L13.3976 19.7868L15.681 17.7852L9.87891 11.3909L18.9336 3.23876L21.8094 6.38686L26.6645 2.05427L29.5339 5.02817L31.4468 3.31477C31.0193 3.06774 30.5917 2.83971 30.1578 2.63385C27.3993 1.28466 24.3019 0.524567 21.0398 0.524567C9.58438 0.524567 0.238281 9.86749 0.238281 21.326C0.238281 32.7814 9.58438 42.1243 21.0398 42.1243C24.7611 42.1243 28.2671 41.1394 31.2916 39.4133C32.2893 38.8496 33.1982 38.2383 34.028 37.5954L29.8443 32.8131Z" fill="#1C57F0"/>
</svg>
