<svg width="34" height="34" viewBox="0 0 34 34" fill="none" xmlns="http://www.w3.org/2000/svg">
<g clip-path="url(#clip0_53_3666)">
<path d="M21.5341 15.4738L21.5099 3.71721C21.5066 2.12128 20.2055 0.822876 18.6095 0.822876H3.07227C1.47299 0.822876 0.171875 2.12399 0.171875 3.7232V15.4533C0.171875 17.0526 1.47299 18.3537 3.07227 18.3537H5.07031V20.2872C5.07031 21.0821 5.98058 21.538 6.61719 21.0606L10.2253 18.3546L18.6249 18.38C20.2559 18.38 21.5374 17.0661 21.5341 15.4738ZM10.8066 14.4222C10.2727 14.4222 9.83984 13.9893 9.83984 13.4554C9.83984 12.9214 10.2727 12.4886 10.8066 12.4886C11.3406 12.4886 11.7734 12.9214 11.7734 13.4554C11.7734 13.9893 11.3406 14.4222 10.8066 14.4222ZM11.8379 10.3892V10.4906C11.8379 11.0245 11.405 11.4574 10.8711 11.4574C10.3372 11.4574 9.9043 11.0245 9.9043 10.4906V9.88737C9.9043 9.24883 10.3789 8.70053 11.0082 8.61191C11.4812 8.54533 11.8379 8.13386 11.8379 7.65465C11.8379 6.95011 11.0615 6.34599 10.1732 6.91441C9.72331 7.20212 9.12551 7.0707 8.83779 6.62101C8.55007 6.17126 8.68143 5.57339 9.13118 5.28561C10.1283 4.64778 11.2987 4.58198 12.2624 5.1094C13.1932 5.61903 13.7715 6.59427 13.7715 7.65471C13.7715 8.89602 12.9718 9.98618 11.8379 10.3892Z" fill="#1C57F0"/>
<path d="M30.2715 14.4221H23.4655L23.4677 15.4698C23.4726 17.8569 21.763 19.7939 19.5725 20.2228H28.2734C28.8074 20.2228 29.2402 20.6557 29.2402 21.1896C29.2402 21.7235 28.8074 22.1564 28.2734 22.1564H16.6719C16.1379 22.1564 15.7051 21.7235 15.7051 21.1896C15.7051 20.7955 15.9413 20.457 16.2795 20.3065L11.8379 20.2931V28.9882C11.8379 30.5874 13.139 31.8885 14.7383 31.8885H21.2776L24.9407 33.72C25.5816 34.0405 26.3398 33.5737 26.3398 32.8553V31.8885H30.2715C31.8708 31.8885 33.1719 30.5874 33.1719 28.9882V17.3225C33.1719 15.7232 31.8708 14.4221 30.2715 14.4221ZM28.2734 26.0234H16.6719C16.1379 26.0234 15.7051 25.5905 15.7051 25.0566C15.7051 24.5227 16.1379 24.0898 16.6719 24.0898H28.2734C28.8074 24.0898 29.2402 24.5227 29.2402 25.0566C29.2402 25.5905 28.8074 26.0234 28.2734 26.0234Z" fill="#1C57F0"/>
</g>
<defs>
<clipPath id="clip0_53_3666">
<rect width="33" height="33" fill="white" transform="translate(0.171875 0.822876)"/>
</clipPath>
</defs>
</svg>
