<svg width="107" height="107" viewBox="0 0 107 107" fill="none" xmlns="http://www.w3.org/2000/svg">
<path fill-rule="evenodd" clip-rule="evenodd" d="M94.0326 21.8373V31.9368H86.907C78.9745 31.9446 71.1889 29.7972 64.382 25.724L55.372 20.2768C54.848 19.9598 54.2472 19.7923 53.6348 19.7923C53.0224 19.7923 52.4216 19.9598 51.8976 20.2768L42.917 25.6945C36.1084 29.7636 28.3239 31.9107 20.392 31.9073H13.2959V21.8373C13.2959 20.9444 13.6486 20.0875 14.2772 19.4533C14.9059 18.8192 15.7596 18.459 16.6526 18.4512H20.4215C28.9625 18.4533 37.3418 16.1217 44.6542 11.7084L53.6642 6.34955L62.6448 11.7379C69.962 16.1402 78.3382 18.4708 86.8776 18.4807H90.6759C91.5614 18.4958 92.4064 18.8543 93.0327 19.4806C93.6589 20.1068 94.0174 20.9518 94.0326 21.8373Z" fill="url(#paint0_linear_53_3520)"/>
<path fill-rule="evenodd" clip-rule="evenodd" d="M86.907 38.7384C77.7562 38.7341 68.779 36.2405 60.937 31.5245L53.6642 27.1079L46.3914 31.4362C38.5566 36.179 29.5799 38.703 20.4215 38.7384H13.2959V47.5718C13.3165 57.7934 16.2457 67.7981 21.7413 76.4168C27.2368 85.0355 35.0716 91.9122 44.3303 96.2434L53.6642 100.572L62.9392 96.2434C72.2111 91.9236 80.0602 85.0512 85.5669 76.4312C91.0737 67.8112 94.0102 57.8006 94.0326 47.5718V38.7384H86.907ZM55.372 68.1829C54.7468 68.7839 53.9132 69.1195 53.0459 69.1195C52.1786 69.1195 51.345 68.7839 50.7198 68.1829L41.2976 58.7607L46.0381 54.0201L53.1048 61.0573L64.8826 49.2795L69.6231 54.0201L55.372 68.1829Z" fill="url(#paint1_linear_53_3520)"/>
<defs>
<linearGradient id="paint0_linear_53_3520" x1="130.403" y1="0.567787" x2="115.614" y2="50.3431" gradientUnits="userSpaceOnUse">
<stop stop-color="#DC11E1"/>
<stop offset="1" stop-color="#6892FF"/>
</linearGradient>
<linearGradient id="paint1_linear_53_3520" x1="130.403" y1="10.5078" x2="53.6117" y2="100.527" gradientUnits="userSpaceOnUse">
<stop stop-color="#DC11E1"/>
<stop offset="1" stop-color="#6892FF"/>
</linearGradient>
</defs>
</svg>
