<svg width="43" height="18" viewBox="0 0 43 18" fill="none" xmlns="http://www.w3.org/2000/svg">
<path fill-rule="evenodd" clip-rule="evenodd" d="M6.345 3.72804C7.11689 3.79426 7.88877 3.33074 8.3712 2.74307C8.84559 2.13885 9.15917 1.3277 9.07876 0.5C8.39532 0.533108 7.55107 0.963513 7.06864 1.56774C6.62642 2.08919 6.24851 2.93344 6.345 3.72804ZM15.5272 14.3888V1.48496H20.2309C22.6591 1.48496 24.3557 3.20658 24.3557 5.7228C24.3557 8.23901 22.627 9.97718 20.1666 9.97718H17.473V14.3888H15.5272ZM9.07066 3.88529C8.39065 3.845 7.77016 4.09581 7.26898 4.2984C6.94645 4.42877 6.67334 4.53917 6.46555 4.53917C6.23237 4.53917 5.94798 4.42287 5.62867 4.29229C5.21027 4.12118 4.73192 3.92556 4.2303 3.93495C3.08051 3.95151 2.01113 4.62194 1.42417 5.68968C0.218102 7.82515 1.1106 10.987 2.27646 12.7251C2.84734 13.586 3.53078 14.5295 4.43131 14.4964C4.82749 14.481 5.11248 14.3566 5.40742 14.2277C5.74697 14.0794 6.09971 13.9253 6.65048 13.9253C7.18216 13.9253 7.51947 14.0754 7.84327 14.2194C8.15115 14.3564 8.44681 14.4879 8.88573 14.4799C9.81843 14.4633 10.4054 13.6191 10.9763 12.7583C11.5923 11.8344 11.8631 10.9327 11.9041 10.7959C11.9065 10.7881 11.9081 10.7827 11.909 10.78C11.908 10.779 11.9004 10.7754 11.8869 10.7691C11.681 10.6721 10.1069 9.93025 10.0918 7.94103C10.0766 6.27137 11.3403 5.42541 11.5393 5.29225C11.5513 5.28416 11.5595 5.27868 11.5632 5.27583C10.7592 4.05083 9.50485 3.9184 9.07066 3.88529ZM27.9097 14.4882C29.1318 14.4882 30.2655 13.8508 30.7801 12.841H30.8203V14.3888H32.6214V7.96587C32.6214 6.10354 31.1741 4.90337 28.9469 4.90337C26.8805 4.90337 25.3528 6.12009 25.2965 7.79205H27.0493C27.1941 6.99746 27.9097 6.476 28.8906 6.476C30.0806 6.476 30.7479 7.04712 30.7479 8.0983V8.81012L28.3197 8.95911C26.0604 9.09982 24.8382 10.0517 24.8382 11.7071C24.8382 13.379 26.1006 14.4882 27.9097 14.4882ZM28.4322 12.9569C27.3949 12.9569 26.7356 12.4437 26.7356 11.6574C26.7356 10.8463 27.3708 10.3745 28.5849 10.3L30.7478 10.1593V10.8877C30.7478 12.0961 29.7508 12.9569 28.4322 12.9569ZM38.5954 14.8937C37.8155 17.1534 36.923 17.8983 35.0254 17.8983C34.8807 17.8983 34.3983 17.8817 34.2857 17.8486V16.3008C34.4063 16.3174 34.7038 16.3339 34.8566 16.3339C35.7169 16.3339 36.1993 15.9615 36.4968 14.9931L36.6737 14.4219L33.3771 5.02753H35.4114L37.7029 12.6507H37.7431L40.0346 5.02753H42.0126L38.5954 14.8937ZM17.4729 3.17348H19.7161C21.4046 3.17348 22.3695 4.1005 22.3695 5.73107C22.3695 7.36165 21.4046 8.29695 19.7081 8.29695H17.4729V3.17348Z" fill="#BCBEC6"/>
</svg>
