<svg width="42" height="18" viewBox="0 0 42 18" fill="none" xmlns="http://www.w3.org/2000/svg">
<path fill-rule="evenodd" clip-rule="evenodd" d="M19.2553 13.9471V8.90213H21.8591C22.9261 8.90213 23.8267 8.54461 24.5609 7.83951L24.737 7.66075C26.0781 6.20088 25.99 3.92666 24.5609 2.57603C23.8463 1.86099 22.8674 1.47368 21.8591 1.49354H17.6793V13.9471H19.2553ZM19.2555 7.37272V3.0229H21.8989C22.4667 3.0229 23.0052 3.24138 23.4066 3.63863C24.2584 4.47284 24.278 5.86319 23.4556 6.7272C23.0542 7.15423 22.4863 7.39258 21.8989 7.37272H19.2555Z" fill="#BCBEC6"/>
<path fill-rule="evenodd" clip-rule="evenodd" d="M32.0885 6.09164C31.4131 5.46598 30.4929 5.14819 29.328 5.14819C27.8303 5.14819 26.7046 5.70433 25.9607 6.80668L27.3507 7.69055C27.8597 6.93579 28.5547 6.5584 29.4357 6.5584C29.9937 6.5584 30.5321 6.76696 30.953 7.14434C31.3641 7.50186 31.599 8.01827 31.599 8.56448V8.93194C30.9921 8.59428 30.2286 8.41552 29.2889 8.41552C28.1925 8.41552 27.3115 8.67373 26.6557 9.20007C25.9998 9.72642 25.667 10.4216 25.667 11.3055C25.6474 12.1099 25.9901 12.8746 26.597 13.391C27.2137 13.9471 27.9968 14.2252 28.9169 14.2252C30.0035 14.2252 30.8649 13.7386 31.5207 12.7653H31.5892V13.9471H33.0967V8.69359C33.0967 7.59124 32.7639 6.7173 32.0885 6.09164ZM27.8111 12.378C27.488 12.1397 27.2922 11.7524 27.2922 11.3352C27.2922 10.8685 27.5076 10.4812 27.9285 10.1733C28.3593 9.86545 28.8978 9.70655 29.5342 9.70655C30.4153 9.69662 31.1006 9.89524 31.5901 10.2925C31.5901 10.9678 31.3258 11.5537 30.8069 12.0503C30.337 12.527 29.7006 12.7951 29.0349 12.7951C28.5943 12.8051 28.1635 12.6561 27.8111 12.378Z" fill="#BCBEC6"/>
<path d="M36.4837 17.6912L41.7501 5.42626H40.037L37.5996 11.5438H37.5702L35.0741 5.42626H33.3611L36.8165 13.4009L34.8587 17.6912H36.4837Z" fill="#BCBEC6"/>
<path d="M13.8144 7.80971C13.8144 7.32308 13.7752 6.83646 13.6969 6.35977H7.05033V9.11068H10.8582C10.7016 9.99455 10.1925 10.789 9.44859 11.2856V13.0732H11.7196C13.0509 11.8318 13.8144 9.99455 13.8144 7.80971Z" fill="#93959E"/>
<path d="M7.05061 14.8012C8.94964 14.8012 10.5547 14.1656 11.7196 13.0732L9.44859 11.2856C8.81232 11.7226 8.00013 11.9708 7.05061 11.9708C5.21032 11.9708 3.6539 10.7096 3.09594 9.0213H0.756413V10.8685C1.95065 13.2817 4.38806 14.8012 7.05061 14.8012Z" fill="#93959E"/>
<path d="M3.09594 9.0213C2.80223 8.13744 2.80249 7.17415 3.0962 6.28035V4.4431H0.756305C-0.252102 6.45911 -0.252102 8.84257 0.756305 10.8586L3.09594 9.0213Z" fill="#93959E"/>
<path d="M7.05061 3.33079C8.05886 3.31093 9.02795 3.69824 9.75232 4.40335L11.7688 2.35755C10.4865 1.14595 8.80281 0.48057 7.05061 0.500432C4.38806 0.500432 1.95054 2.02984 0.756305 4.4431L3.09594 6.29026C3.6539 4.59204 5.21032 3.33079 7.05061 3.33079Z" fill="#93959E"/>
</svg>
