<svg width="40" height="26" viewBox="0 0 40 26" fill="none" xmlns="http://www.w3.org/2000/svg">
<path d="M40 12.8605C40 19.6931 34.4721 25.221 27.6395 25.221C24.7554 25.221 22.1116 24.2253 20.0172 22.5773C22.9013 20.3112 24.7211 16.809 24.7211 12.8605C24.7211 8.91202 22.867 5.40988 20.0172 3.14378C22.1116 1.49571 24.7554 0.5 27.6395 0.5C34.4721 0.5 40 6.06223 40 12.8605Z" fill="#BCBEC6"/>
<path d="M20.0172 3.14378C20.0172 3.14378 20.0172 3.14378 20.0172 3.14378C22.867 5.40988 24.7211 8.91202 24.7211 12.8605C24.7211 16.809 22.9013 20.3112 20.0172 22.5773L19.9827 22.5773C17.133 20.3455 15.279 16.809 15.279 12.8606C15.279 8.91209 17.133 5.40995 19.9828 3.14385C19.9828 3.14383 19.9828 3.14388 19.9828 3.14385L20.0172 3.14378Z" fill="#93959E" fill-opacity="0.77"/>
<path d="M15.279 12.8606C15.279 8.91209 17.133 5.40995 19.9828 3.14385C17.8884 1.49578 15.2446 0.500053 12.3605 0.500053C5.5279 0.500053 0 6.02795 0 12.8606C0 19.6932 5.5279 25.2211 12.3605 25.2211C15.2446 25.2211 17.8883 24.2253 19.9827 22.5773C17.133 20.3455 15.279 16.809 15.279 12.8606Z" fill="#93959E"/>
</svg>
