<svg width="47" height="16" viewBox="0 0 47 16" fill="none" xmlns="http://www.w3.org/2000/svg">
<path d="M33.9463 1.11688C33.2196 0.823705 32.067 0.5 30.6419 0.5C27.0037 0.5 24.4417 2.47296 24.426 5.2937C24.3958 7.37483 26.2603 8.53075 27.6548 9.22466C29.0802 9.93374 29.5647 10.3966 29.5647 11.0286C29.5502 11.9993 28.4129 12.4468 27.3522 12.4468C25.8813 12.4468 25.0932 12.2161 23.8955 11.676L23.4104 11.4445L22.8949 14.6971C23.7589 15.0974 25.3509 15.4527 27.0037 15.4683C30.8693 15.4683 33.386 13.5258 33.4158 10.5199C33.4305 8.87043 32.446 7.60655 30.3234 6.57377C29.0348 5.91079 28.2457 5.46375 28.2457 4.7854C28.2608 4.16872 28.9131 3.53709 30.3677 3.53709C31.5654 3.50615 32.4454 3.79892 33.112 4.09189L33.4452 4.24576L33.9463 1.11688Z" fill="#93959E"/>
<path d="M20.591 15.2523H16.9068L19.2111 0.762651H22.8951L20.591 15.2523Z" fill="#93959E"/>
<path fill-rule="evenodd" clip-rule="evenodd" d="M43.3904 0.762651H40.5407C39.6619 0.762651 38.9943 1.02448 38.6151 1.96487L33.1428 15.2521H37.0085C37.0085 15.2521 37.6449 13.4638 37.7817 13.0786H42.5118C42.6175 13.5873 42.9514 15.2521 42.9514 15.2521H46.3625L43.3904 0.762651ZM38.8428 10.1191C39.1462 9.28674 40.3136 6.06505 40.3136 6.06505C40.3075 6.07746 40.355 5.94361 40.4258 5.74401L40.4266 5.74157L40.4272 5.73997C40.533 5.44184 40.6899 4.99932 40.7984 4.67784L41.0558 5.92635C41.0558 5.92635 41.7535 9.3947 41.905 10.1191H38.8428Z" fill="#93959E"/>
<path d="M13.8297 0.762651L10.2217 10.6432L9.82746 8.63933L9.8271 8.63809L8.53891 1.98064C8.32677 1.05521 7.67484 0.793178 6.87141 0.762651H0.944002L0.883362 1.05542C2.32903 1.43137 3.62206 1.97312 4.75501 2.64671L8.03868 15.237H11.9345L17.7254 0.762651H13.8297Z" fill="#93959E"/>
</svg>
